<svg width="22" height="25" viewBox="0 0 22 25" fill="none" xmlns="http://www.w3.org/2000/svg">
<path d="M11 24.5C11.7956 24.5 12.5586 24.1839 13.1212 23.6214C13.6838 23.0588 13.9998 22.2958 13.9998 21.5002H8.00017C8.00017 22.2958 8.31622 23.0588 8.8788 23.6214C9.44138 24.1839 10.2044 24.5 11 24.5ZM11 3.37815L9.80457 3.61964C8.44833 3.8954 7.22912 4.63157 6.35356 5.70341C5.47799 6.77524 4.99992 8.11682 5.00033 9.50082C5.00033 10.4428 4.79934 12.7961 4.31187 15.1135C4.07188 16.2639 3.7479 17.4624 3.31743 18.5003H18.6826C18.2521 17.4624 17.9296 16.2654 17.6881 15.1135C17.2007 12.7961 16.9997 10.4428 16.9997 9.50082C16.9997 8.11708 16.5215 6.77585 15.646 5.70433C14.7704 4.6328 13.5514 3.89685 12.1954 3.62114L11 3.37815ZM20.3295 18.5003C20.664 19.1708 21.051 19.7018 21.4994 20.0002H0.50058C0.949055 19.7018 1.33603 19.1708 1.67052 18.5003C3.02044 15.8005 3.50042 10.8207 3.50042 9.50082C3.50042 5.87102 6.08027 2.84118 9.50759 2.14972C9.48665 1.94116 9.50966 1.73053 9.57513 1.53142C9.6406 1.3323 9.74708 1.14911 9.8877 0.993673C10.0283 0.838234 10.2 0.713993 10.3915 0.628962C10.5831 0.543932 10.7904 0.5 11 0.5C11.2096 0.5 11.4169 0.543932 11.6085 0.628962C11.8001 0.713993 11.9717 0.838234 12.1123 0.993673C12.2529 1.14911 12.3594 1.3323 12.4249 1.53142C12.4903 1.73053 12.5134 1.94116 12.4924 2.14972C14.188 2.49403 15.7124 3.41402 16.8072 4.75378C17.902 6.09353 18.4999 7.77063 18.4996 9.50082C18.4996 10.8207 18.9796 15.8005 20.3295 18.5003Z" fill="#798889"/>
</svg>
