<svg width="24" height="22" viewBox="0 0 24 22" fill="none" xmlns="http://www.w3.org/2000/svg">
<path d="M12.3138 19.387C12.4723 19.387 12.6244 19.45 12.7365 19.5621C12.8486 19.6742 12.9116 19.8263 12.9116 19.9848C12.9116 20.1434 12.8486 20.2954 12.7365 20.4075C12.6244 20.5196 12.4723 20.5826 12.3138 20.5826H1.38513C1.01802 20.5807 0.666681 20.4332 0.408309 20.1724C0.148409 19.9135 0.00159949 19.5623 0 19.1955V1.90979C0.000622807 1.72796 0.0371905 1.54805 0.107599 1.38041C0.178008 1.21277 0.280869 1.06071 0.410263 0.932969C0.667638 0.671393 1.01818 0.522465 1.38513 0.518799H17.8953C18.2621 0.520398 18.6133 0.667208 18.8721 0.927108L18.9131 0.972042C19.1477 1.22818 19.2787 1.56245 19.2804 1.90979V10.0916C19.2804 10.2502 19.2174 10.4022 19.1053 10.5143C18.9932 10.6264 18.8412 10.6894 18.6826 10.6894C18.5241 10.6894 18.372 10.6264 18.2599 10.5143C18.1478 10.4022 18.0848 10.2502 18.0848 10.0916V1.90979C18.0845 1.86572 18.0694 1.82303 18.0418 1.78866L18.0262 1.77303C17.9901 1.73622 17.941 1.71516 17.8894 1.71442H1.38513C1.3336 1.71516 1.28444 1.73622 1.24837 1.77303C1.21228 1.80942 1.19193 1.85853 1.19172 1.90979V19.1916C1.19245 19.2432 1.21352 19.2923 1.25033 19.3284C1.28671 19.3645 1.33583 19.3848 1.38708 19.385L12.3138 19.387ZM18.6396 13.6902C19.3312 12.9674 19.8118 12.3441 20.8863 12.2211C22.8868 11.9925 24.7252 14.0419 23.7132 16.058C23.426 16.6324 22.8399 17.3161 22.1933 17.9862C21.4841 18.7228 20.7027 19.4436 20.1439 19.9907L18.6416 21.4813L17.3991 20.2857C15.9045 18.8478 13.4742 17.0348 13.3863 14.792C13.3316 13.2291 14.5722 12.2133 15.9983 12.2308C17.274 12.2484 17.8132 12.8814 18.6396 13.6902ZM4.63988 13.6902C4.78009 13.6902 4.91712 13.7319 5.03359 13.8099C5.15005 13.888 5.24069 13.9989 5.29398 14.1286C5.34727 14.2583 5.36081 14.4009 5.33288 14.5383C5.30495 14.6757 5.23682 14.8017 5.13713 14.9003C5.03744 14.9988 4.9107 15.0656 4.773 15.092C4.6353 15.1184 4.49286 15.1033 4.36378 15.0485C4.2347 14.9938 4.1248 14.9019 4.04803 14.7846C3.97127 14.6673 3.93112 14.5298 3.93266 14.3896C3.93266 14.2967 3.95096 14.2048 3.9865 14.119C4.02204 14.0332 4.07413 13.9552 4.1398 13.8895C4.20547 13.8239 4.28344 13.7718 4.36924 13.7362C4.45504 13.7007 4.54701 13.6824 4.63988 13.6824V13.6902ZM7.51368 15.1105C7.37283 15.0838 7.24572 15.0088 7.15427 14.8984C7.06282 14.788 7.01278 14.6492 7.01278 14.5058C7.01278 14.3625 7.06282 14.2236 7.15427 14.1133C7.24572 14.0029 7.37283 13.9279 7.51368 13.9012H9.81896C9.95981 13.9279 10.0869 14.0029 10.1784 14.1133C10.2698 14.2236 10.3199 14.3625 10.3199 14.5058C10.3199 14.6492 10.2698 14.788 10.1784 14.8984C10.0869 15.0088 9.95981 15.0838 9.81896 15.1105H7.51368ZM4.63988 9.50552C4.77984 9.50552 4.91665 9.54704 5.03299 9.62484C5.14933 9.70264 5.23998 9.8132 5.29345 9.94254C5.34692 10.0719 5.36081 10.2142 5.33336 10.3514C5.30591 10.4887 5.23836 10.6147 5.13926 10.7135C5.04016 10.8123 4.91396 10.8795 4.77665 10.9066C4.63934 10.9337 4.49708 10.9194 4.36788 10.8656C4.23869 10.8117 4.12838 10.7208 4.0509 10.6042C3.97343 10.4877 3.93228 10.3507 3.93266 10.2108C3.93318 10.0236 4.00792 9.84417 4.14049 9.71196C4.27307 9.57976 4.45265 9.50551 4.63988 9.50552ZM7.51368 10.8613C7.37295 10.8371 7.24532 10.7639 7.15332 10.6547C7.06132 10.5455 7.01087 10.4073 7.01087 10.2645C7.01087 10.1217 7.06132 9.98351 7.15332 9.8743C7.24532 9.76509 7.37295 9.69191 7.51368 9.66767H12.22C12.3607 9.69191 12.4883 9.76509 12.5803 9.8743C12.6723 9.98351 12.7228 10.1217 12.7228 10.2645C12.7228 10.4073 12.6723 10.5455 12.5803 10.6547C12.4883 10.7639 12.3607 10.8371 12.22 10.8613H7.51368ZM4.63988 5.32474C4.77975 5.32474 4.91649 5.36622 5.03279 5.44393C5.14909 5.52164 5.23973 5.63209 5.29326 5.76131C5.34679 5.89054 5.3608 6.03274 5.33351 6.16992C5.30622 6.30711 5.23886 6.43312 5.13996 6.53203C5.04105 6.63094 4.91504 6.69829 4.77785 6.72558C4.64067 6.75287 4.49847 6.73886 4.36924 6.68534C4.24001 6.63181 4.12956 6.54116 4.05185 6.42486C3.97414 6.30856 3.93266 6.17183 3.93266 6.03195C3.93266 5.93908 3.95096 5.84712 3.9865 5.76131C4.02204 5.67551 4.07413 5.59755 4.1398 5.53188C4.20547 5.46621 4.28344 5.41411 4.36924 5.37857C4.45504 5.34303 4.54701 5.32474 4.63988 5.32474ZM7.51368 6.6239C7.36848 6.61049 7.2344 6.54045 7.14044 6.42894C7.04648 6.31743 7.00019 6.17342 7.01159 6.02805C7.00017 5.88247 7.0464 5.73823 7.14031 5.6264C7.23423 5.51458 7.36831 5.44413 7.51368 5.43023H14.1345C14.2817 5.44171 14.4182 5.51112 14.5142 5.62321C14.6102 5.7353 14.6577 5.88091 14.6464 6.02805C14.6578 6.17342 14.6115 6.31743 14.5175 6.42894C14.4236 6.54045 14.2895 6.61049 14.1443 6.6239H7.51368Z" fill="white"/>
</svg>
