<svg width="42" height="38" viewBox="0 0 42 38" fill="none" xmlns="http://www.w3.org/2000/svg">
<path d="M7.948 1.18433V5.09898H1V8.93165C1 15.3468 2.90609 18.9232 7.48685 21.147C9.18982 22.0626 10.7616 23.2036 12.1598 24.539C13.2841 25.7373 14.6545 26.6777 16.177 27.2957L17.9088 27.8286V32.4708H15.2649C12.0676 32.4708 10.9916 33.1984 10.9916 35.3607V36.8159H30.9748V35.5144C30.9748 33.3931 29.6631 32.4401 26.6297 32.4401H24.0575V27.8286L25.8201 27.3059C27.3451 26.6879 28.7162 25.7435 29.8373 24.539C31.2963 23.1492 32.929 21.954 34.6947 20.983C36.066 20.3232 37.2906 19.3943 38.2958 18.2518C39.301 17.1093 40.0663 15.7764 40.5462 14.3322C40.8722 12.5441 41.0233 10.7285 40.9971 8.91116V5.10923H34.0184V1.18433H7.948ZM20.9832 7.71217L23.084 12.0572H28.1464L24.1805 15.7157L25.318 20.3887L20.9832 18.0624L16.6484 20.4194L17.7859 15.7464L13.8097 12.088H18.8824L20.9832 7.71217ZM4.64821 9.01363H7.88651V17.0889C7.54833 17.2938 6.49281 16.0641 5.72423 14.6602C5.28774 13.5854 5.00819 12.4533 4.89416 11.2989L4.64821 9.01363ZM34.0798 9.01363H37.6051L37.3079 11.2681C37.2381 13.1449 36.4835 14.9311 35.1866 16.2896C34.8811 16.7049 34.494 17.0536 34.0491 17.3143L34.0798 9.01363Z" stroke="#232323" stroke-width="1.5" stroke-linecap="round" stroke-linejoin="round"/>
</svg>
