<svg width="24" height="24" viewBox="0 0 24 24" fill="none" xmlns="http://www.w3.org/2000/svg">
<path opacity="0.5" d="M24 9.6H0V20.4C0 21.3548 0.379285 22.2705 1.05442 22.9456C1.72955 23.6207 2.64522 24 3.6 24H20.4C21.3548 24 22.2705 23.6207 22.9456 22.9456C23.6207 22.2705 24 21.3548 24 20.4V9.6ZM6 7.2C5.68174 7.2 5.37652 7.07357 5.15147 6.84853C4.92643 6.62348 4.8 6.31826 4.8 6V1.2C4.8 0.88174 4.92643 0.576515 5.15147 0.351472C5.37652 0.126428 5.68174 0 6 0C6.31826 0 6.62348 0.126428 6.84853 0.351472C7.07357 0.576515 7.2 0.88174 7.2 1.2V6C7.2 6.31826 7.07357 6.62348 6.84853 6.84853C6.62348 7.07357 6.31826 7.2 6 7.2ZM18 7.2C17.6817 7.2 17.3765 7.07357 17.1515 6.84853C16.9264 6.62348 16.8 6.31826 16.8 6V1.2C16.8 0.88174 16.9264 0.576515 17.1515 0.351472C17.3765 0.126428 17.6817 0 18 0C18.3183 0 18.6235 0.126428 18.8485 0.351472C19.0736 0.576515 19.2 0.88174 19.2 1.2V6C19.2 6.31826 19.0736 6.62348 18.8485 6.84853C18.6235 7.07357 18.3183 7.2 18 7.2Z" fill="#798889"/>
<path d="M20.4 2.40039H19.2V6.00039C19.2 6.31865 19.0736 6.62388 18.8485 6.84892C18.6235 7.07396 18.3183 7.20039 18 7.20039C17.6817 7.20039 17.3765 7.07396 17.1515 6.84892C16.9264 6.62388 16.8 6.31865 16.8 6.00039V2.40039H7.2V6.00039C7.2 6.31865 7.07357 6.62388 6.84853 6.84892C6.62348 7.07396 6.31826 7.20039 6 7.20039C5.68174 7.20039 5.37652 7.07396 5.15147 6.84892C4.92643 6.62388 4.8 6.31865 4.8 6.00039V2.40039H3.6C2.64522 2.40039 1.72955 2.77968 1.05442 3.45481C0.379285 4.12994 0 5.04561 0 6.00039V9.60039H24V6.00039C24 5.04561 23.6207 4.12994 22.9456 3.45481C22.2705 2.77968 21.3548 2.40039 20.4 2.40039Z" fill="#798889"/>
</svg>
