<svg width="20" height="20" viewBox="0 0 20 20" fill="none" xmlns="http://www.w3.org/2000/svg">
<path d="M15.5 15.5C16.0304 15.5 16.5391 15.7107 16.9142 16.0858C17.2893 16.4609 17.5 16.9696 17.5 17.5C17.5 18.0304 17.2893 18.5391 16.9142 18.9142C16.5391 19.2893 16.0304 19.5 15.5 19.5C14.9696 19.5 14.4609 19.2893 14.0858 18.9142C13.7107 18.5391 13.5 18.0304 13.5 17.5C13.5 16.9696 13.7107 16.4609 14.0858 16.0858C14.4609 15.7107 14.9696 15.5 15.5 15.5ZM15.5 16.5C15.2348 16.5 14.9804 16.6054 14.7929 16.7929C14.6054 16.9804 14.5 17.2348 14.5 17.5C14.5 17.7652 14.6054 18.0196 14.7929 18.2071C14.9804 18.3946 15.2348 18.5 15.5 18.5C15.7652 18.5 16.0196 18.3946 16.2071 18.2071C16.3946 18.0196 16.5 17.7652 16.5 17.5C16.5 17.2348 16.3946 16.9804 16.2071 16.7929C16.0196 16.6054 15.7652 16.5 15.5 16.5ZM6.5 15.5C7.03043 15.5 7.53914 15.7107 7.91421 16.0858C8.28929 16.4609 8.5 16.9696 8.5 17.5C8.5 18.0304 8.28929 18.5391 7.91421 18.9142C7.53914 19.2893 7.03043 19.5 6.5 19.5C5.96957 19.5 5.46086 19.2893 5.08579 18.9142C4.71071 18.5391 4.5 18.0304 4.5 17.5C4.5 16.9696 4.71071 16.4609 5.08579 16.0858C5.46086 15.7107 5.96957 15.5 6.5 15.5ZM6.5 16.5C6.23478 16.5 5.98043 16.6054 5.79289 16.7929C5.60536 16.9804 5.5 17.2348 5.5 17.5C5.5 17.7652 5.60536 18.0196 5.79289 18.2071C5.98043 18.3946 6.23478 18.5 6.5 18.5C6.76522 18.5 7.01957 18.3946 7.20711 18.2071C7.39464 18.0196 7.5 17.7652 7.5 17.5C7.5 17.2348 7.39464 16.9804 7.20711 16.7929C7.01957 16.6054 6.76522 16.5 6.5 16.5ZM17.5 3.5H3.77L6.32 9.5H14.5C14.83 9.5 15.12 9.34 15.3 9.1L18.3 5.1C18.43 4.93 18.5 4.72 18.5 4.5C18.5 4.23478 18.3946 3.98043 18.2071 3.79289C18.0196 3.60536 17.7652 3.5 17.5 3.5ZM14.5 10.5H6.37L5.6 12.06L5.5 12.5C5.5 12.7652 5.60536 13.0196 5.79289 13.2071C5.98043 13.3946 6.23478 13.5 6.5 13.5H17.5V14.5H6.5C5.96957 14.5 5.46086 14.2893 5.08579 13.9142C4.71071 13.5391 4.5 13.0304 4.5 12.5C4.4997 12.1607 4.58573 11.8269 4.75 11.53L5.47 10.06L1.84 1.5H0.5V0.5H2.5L3.35 2.5H17.5C18.0304 2.5 18.5391 2.71071 18.9142 3.08579C19.2893 3.46086 19.5 3.96957 19.5 4.5C19.5 5 19.33 5.42 19.05 5.76L16.14 9.65C15.78 10.16 15.18 10.5 14.5 10.5Z" fill="#798889"/>
</svg>
