<svg width="18" height="18" viewBox="0 0 18 18" fill="none" xmlns="http://www.w3.org/2000/svg">
<path d="M14.2105 14.2105C14.713 14.2105 15.195 14.4101 15.5503 14.7655C15.9056 15.1208 16.1053 15.6027 16.1053 16.1053C16.1053 16.6078 15.9056 17.0897 15.5503 17.445C15.195 17.8004 14.713 18 14.2105 18C13.708 18 13.2261 17.8004 12.8707 17.445C12.5154 17.0897 12.3158 16.6078 12.3158 16.1053C12.3158 15.6027 12.5154 15.1208 12.8707 14.7655C13.2261 14.4101 13.708 14.2105 14.2105 14.2105ZM14.2105 15.1579C13.9593 15.1579 13.7183 15.2577 13.5406 15.4354C13.363 15.613 13.2632 15.854 13.2632 16.1053C13.2632 16.3565 13.363 16.5975 13.5406 16.7752C13.7183 16.9528 13.9593 17.0526 14.2105 17.0526C14.4618 17.0526 14.7028 16.9528 14.8804 16.7752C15.0581 16.5975 15.1579 16.3565 15.1579 16.1053C15.1579 15.854 15.0581 15.613 14.8804 15.4354C14.7028 15.2577 14.4618 15.1579 14.2105 15.1579ZM5.68421 14.2105C6.18673 14.2105 6.66866 14.4101 7.02399 14.7655C7.37932 15.1208 7.57895 15.6027 7.57895 16.1053C7.57895 16.6078 7.37932 17.0897 7.02399 17.445C6.66866 17.8004 6.18673 18 5.68421 18C5.18169 18 4.69976 17.8004 4.34443 17.445C3.9891 17.0897 3.78947 16.6078 3.78947 16.1053C3.78947 15.6027 3.9891 15.1208 4.34443 14.7655C4.69976 14.4101 5.18169 14.2105 5.68421 14.2105ZM5.68421 15.1579C5.43295 15.1579 5.19199 15.2577 5.01432 15.4354C4.83665 15.613 4.73684 15.854 4.73684 16.1053C4.73684 16.3565 4.83665 16.5975 5.01432 16.7752C5.19199 16.9528 5.43295 17.0526 5.68421 17.0526C5.93547 17.0526 6.17643 16.9528 6.3541 16.7752C6.53177 16.5975 6.63158 16.3565 6.63158 16.1053C6.63158 15.854 6.53177 15.613 6.3541 15.4354C6.17643 15.2577 5.93547 15.1579 5.68421 15.1579ZM16.1053 2.84211H3.09789L5.51368 8.52632H13.2632C13.5758 8.52632 13.8505 8.37474 14.0211 8.14737L16.8632 4.35789C16.9863 4.19684 17.0526 3.99789 17.0526 3.78947C17.0526 3.53822 16.9528 3.29725 16.7752 3.11958C16.5975 2.94192 16.3565 2.84211 16.1053 2.84211ZM13.2632 9.47368H5.56105L4.83158 10.9516L4.73684 11.3684C4.73684 11.6197 4.83665 11.8606 5.01432 12.0383C5.19199 12.216 5.43295 12.3158 5.68421 12.3158H16.1053V13.2632H5.68421C5.18169 13.2632 4.69976 13.0635 4.34443 12.7082C3.9891 12.3529 3.78947 11.8709 3.78947 11.3684C3.78919 11.047 3.8707 10.7307 4.02632 10.4495L4.70842 9.05684L1.26947 0.947368H0V0H1.89474L2.7 1.89474H16.1053C16.6078 1.89474 17.0897 2.09436 17.445 2.44969C17.8004 2.80502 18 3.28696 18 3.78947C18 4.26316 17.8389 4.66105 17.5737 4.98316L14.8168 8.66842C14.4758 9.15158 13.9074 9.47368 13.2632 9.47368Z" fill="#232323"/>
</svg>
