<svg width="15" height="15" viewBox="0 0 15 15" fill="none" xmlns="http://www.w3.org/2000/svg">
<path fill-rule="evenodd" clip-rule="evenodd" d="M6.34842 1.04865C6.50993 1.04865 6.64084 1.17957 6.64084 1.34108V6.89707C6.64084 7.05856 6.50993 7.18949 6.34842 7.18949H0.792421C0.630913 7.18949 0.5 7.05856 0.5 6.89707V1.34108C0.5 1.17957 0.630913 1.04865 0.792421 1.04865H6.34842ZM5.39805 2.29144H1.74279V5.94671H5.39805V2.29144ZM14.4144 3.89402C14.5285 4.00821 14.5285 4.19337 14.4144 4.30756L11.106 7.61594C10.9918 7.73013 10.8067 7.73013 10.6924 7.61594L7.38408 4.30756C7.26989 4.19337 7.26989 4.00821 7.38408 3.89402L10.6925 0.585643C10.8067 0.471452 10.9918 0.471452 11.106 0.585643L14.4144 3.89402ZM12.8636 4.10078L10.8992 2.13646L8.93488 4.1008L10.8992 6.06514L12.8636 4.10078ZM6.34842 8.35918C6.50993 8.35918 6.64084 8.49011 6.64084 8.6516V14.2076C6.64084 14.3691 6.50993 14.5 6.34842 14.5H0.792421C0.630913 14.5 0.5 14.3691 0.5 14.2076V8.6516C0.5 8.49011 0.630913 8.35918 0.792421 8.35918H6.34842ZM5.39805 9.60197H1.74279V13.2572H5.39805V9.60197ZM13.6589 8.35918C13.8205 8.35918 13.9514 8.49011 13.9514 8.6516V14.2076C13.9514 14.3691 13.8205 14.5 13.6589 14.5H8.10294C7.94144 14.5 7.81052 14.3691 7.81052 14.2076V8.6516C7.81052 8.49011 7.94144 8.35918 8.10294 8.35918H13.6589ZM12.7086 9.60197H9.05331V13.2572H12.7086V9.60197Z" fill="#798889"/>
</svg>
