<svg width="18" height="18" viewBox="0 0 18 18" fill="none" xmlns="http://www.w3.org/2000/svg">
<path d="M9.00302 5.10154e-07C7.4416 -0.00052515 5.9069 0.405186 4.54972 1.17727C3.19255 1.94936 2.05959 3.06125 1.26217 4.4037C0.464749 5.74614 0.0303069 7.27296 0.00152905 8.83412C-0.0272488 10.3953 0.350628 11.9371 1.09803 13.308L0.0330301 17.043C-0.00444392 17.1741 -0.00544228 17.313 0.0301426 17.4447C0.0657276 17.5764 0.136548 17.6959 0.234983 17.7903C0.333417 17.8847 0.455738 17.9505 0.58878 17.9806C0.721823 18.0106 0.860549 18.0039 0.990029 17.961L4.49702 16.7925C5.69231 17.4832 7.03048 17.8897 8.40799 17.9805C9.78551 18.0713 11.1655 17.844 12.4411 17.3162C13.7167 16.7884 14.8538 15.9742 15.7644 14.9366C16.675 13.899 17.3347 12.6658 17.6925 11.3325C18.0503 9.99914 18.0965 8.60137 17.8277 7.24729C17.5588 5.89322 16.9821 4.61914 16.1421 3.52362C15.3021 2.4281 14.2213 1.5405 12.9834 0.9295C11.7454 0.318496 10.3835 0.000461924 9.00302 5.10154e-07ZM6.00302 7.49999C6.00302 7.30108 6.08204 7.11032 6.22269 6.96966C6.36335 6.82901 6.55411 6.74999 6.75302 6.74999H11.253C11.4519 6.74999 11.6427 6.82901 11.7833 6.96966C11.924 7.11032 12.003 7.30108 12.003 7.49999C12.003 7.6989 11.924 7.88967 11.7833 8.03032C11.6427 8.17097 11.4519 8.24999 11.253 8.24999H6.75302C6.55411 8.24999 6.36335 8.17097 6.22269 8.03032C6.08204 7.88967 6.00302 7.6989 6.00302 7.49999ZM6.75302 9.74999H9.75302C9.95193 9.74999 10.1427 9.82901 10.2833 9.96966C10.424 10.1103 10.503 10.3011 10.503 10.5C10.503 10.6989 10.424 10.8897 10.2833 11.0303C10.1427 11.171 9.95193 11.25 9.75302 11.25H6.75302C6.55411 11.25 6.36335 11.171 6.22269 11.0303C6.08204 10.8897 6.00302 10.6989 6.00302 10.5C6.00302 10.3011 6.08204 10.1103 6.22269 9.96966C6.36335 9.82901 6.55411 9.74999 6.75302 9.74999Z" fill="#798889"/>
</svg>
