<svg width="19" height="20" viewBox="0 0 19 20" fill="none" xmlns="http://www.w3.org/2000/svg">
<path d="M5.80679 19.3079C5.38479 19.3079 5.02912 19.1632 4.73979 18.8739C4.45045 18.5846 4.30612 18.2292 4.30679 17.8079C4.30745 17.3866 4.45179 17.0309 4.73979 16.7409C5.02912 16.4522 5.38479 16.3079 5.80679 16.3079C6.22879 16.3079 6.58412 16.4522 6.87279 16.7409C7.16145 17.0296 7.30612 17.3852 7.30679 17.8079C7.30745 18.2306 7.16279 18.5859 6.87279 18.8739C6.58279 19.1619 6.22745 19.3066 5.80679 19.3079ZM15.1908 19.3079C14.7695 19.3079 14.4141 19.1632 14.1248 18.8739C13.8355 18.5846 13.6908 18.2292 13.6908 17.8079C13.6908 17.3866 13.8355 17.0309 14.1248 16.7409C14.4141 16.4522 14.7695 16.3079 15.1908 16.3079C15.6121 16.3079 15.9678 16.4522 16.2578 16.7409C16.5465 17.0302 16.6908 17.3859 16.6908 17.8079C16.6908 18.2292 16.5465 18.5846 16.2578 18.8739C15.9685 19.1632 15.6128 19.3079 15.1908 19.3079ZM2.30679 1.69189H0.998786C0.856786 1.69189 0.737786 1.64423 0.641786 1.54889C0.545786 1.45356 0.49812 1.33456 0.498786 1.19189C0.499453 1.04923 0.547119 0.930228 0.641786 0.834894C0.736453 0.739561 0.855453 0.691895 0.998786 0.691895H2.43779C2.59512 0.691895 2.73779 0.732228 2.86579 0.812895C2.99445 0.893561 3.09412 1.00623 3.16479 1.15089L7.04279 9.30789H13.6778C13.7931 9.30789 13.8958 9.27889 13.9858 9.22089C14.0751 9.1629 14.1518 9.08289 14.2158 8.98089L17.5718 2.94189C17.6171 2.86523 17.6761 2.80423 17.7488 2.75889C17.8215 2.71356 17.9048 2.69123 17.9988 2.69189C18.1901 2.69189 18.3335 2.77423 18.4288 2.93889C18.5241 3.10356 18.5251 3.26923 18.4318 3.43589L15.0678 9.52589C14.9231 9.76989 14.7351 9.96123 14.5038 10.0999C14.2725 10.2386 14.0181 10.3079 13.7408 10.3079H6.59879L5.38379 12.5379C5.28112 12.6919 5.27779 12.8586 5.37379 13.0379C5.46979 13.2172 5.61412 13.3072 5.80679 13.3079H16.1908C16.3335 13.3079 16.4525 13.3556 16.5478 13.4509C16.6431 13.5462 16.6908 13.6652 16.6908 13.8079C16.6908 13.9506 16.6431 14.0692 16.5478 14.1639C16.4525 14.2586 16.3335 14.3066 16.1908 14.3079H5.80679C5.22345 14.3079 4.78712 14.0629 4.49779 13.5729C4.20845 13.0829 4.20245 12.5879 4.47979 12.0879L5.98379 9.40789L2.30679 1.69189ZM11.9048 4.69189H7.49879C7.35679 4.69189 7.23779 4.64423 7.14179 4.54889C7.04579 4.45356 6.99812 4.33456 6.99879 4.19189C6.99945 4.04923 7.04712 3.93023 7.14179 3.83489C7.23645 3.73956 7.35545 3.69189 7.49879 3.69189H11.9048L10.1388 1.92589C10.0408 1.82856 9.99279 1.71723 9.99479 1.59189C9.99679 1.46656 10.0468 1.35489 10.1448 1.25689C10.2415 1.16356 10.3561 1.11589 10.4888 1.11389C10.6215 1.11189 10.7361 1.15956 10.8328 1.25689L13.2208 3.62689C13.3828 3.78823 13.4638 3.97656 13.4638 4.19189C13.4638 4.40723 13.3828 4.59589 13.2208 4.75789L10.8328 7.1459C10.7395 7.23923 10.6288 7.28356 10.5008 7.27889C10.3735 7.27489 10.2611 7.22389 10.1638 7.12589C10.0698 7.03256 10.0228 6.91789 10.0228 6.78189C10.0228 6.64589 10.0695 6.53123 10.1628 6.43789L11.9048 4.69189Z" fill="white"/>
</svg>
