<svg width="24" height="24" viewBox="0 0 24 24" fill="none" xmlns="http://www.w3.org/2000/svg">
<path fill-rule="evenodd" clip-rule="evenodd" d="M1.90831 16.1416C-1.16541 8.5981 4.38452 0.343628 12.5296 0.343628H12.9685C15.894 0.344353 18.6995 1.50683 20.7682 3.57548C22.8368 5.64412 23.9993 8.4496 24 11.3751C24.0004 12.988 23.6829 14.5852 23.0659 16.0754C22.4488 17.5655 21.5442 18.9196 20.4037 20.06C19.2632 21.2005 17.9092 22.1051 16.419 22.7222C14.9288 23.3393 13.3317 23.6567 11.7188 23.6563H1.0264C0.813943 23.6565 0.606676 23.5907 0.433237 23.468C0.259797 23.3453 0.128747 23.1718 0.0581955 22.9714C-0.012356 22.771 -0.0189256 22.5536 0.0393945 22.3493C0.0977146 22.145 0.218045 21.9639 0.383758 21.831L3.07873 19.6665C3.13635 19.6203 3.17748 19.5568 3.19597 19.4853C3.21445 19.4138 3.2093 19.3383 3.18128 19.27L1.90831 16.1416ZM12.5296 2.3946C5.83934 2.3946 1.28208 9.17237 3.80614 15.3677L5.08048 18.4975C5.27464 18.9746 5.30966 19.5016 5.18033 20.0002C5.051 20.4988 4.76423 20.9423 4.36264 21.2649L3.94014 21.6054H11.7188C13.0623 21.6057 14.3928 21.3413 15.6342 20.8274C16.8755 20.3134 18.0034 19.5598 18.9535 18.6098C19.9035 17.6598 20.657 16.5318 21.171 15.2905C21.685 14.0491 21.9494 12.7187 21.949 11.3751C21.9483 8.99356 21.0019 6.70975 19.3179 5.02573C17.6339 3.34172 15.3501 2.39532 12.9685 2.3946H12.5296Z" fill="white"/>
</svg>
