<svg width="19" height="19" viewBox="0 0 19 19" fill="none" xmlns="http://www.w3.org/2000/svg">
<path d="M1.12555 17.4722L1.12558 16.33C1.12558 15.8826 1.46154 15.7422 1.5955 15.6803L6.53814 13.3479C6.89239 13.1852 7.13692 12.8498 7.18449 12.4629C7.20799 12.2726 7.18242 12.0794 7.11022 11.9017C7.03801 11.7241 6.92157 11.5679 6.77196 11.4479C5.60278 10.5092 5.058 8.44574 5.058 7.34689V4.53439C5.058 3.35846 7.10512 1.72301 8.99973 1.72301C10.9109 1.72301 12.9381 3.33285 12.9381 4.53439V7.34689C12.9381 8.4294 12.4879 10.5004 11.2804 11.4513C11.129 11.5705 11.0107 11.7265 10.9369 11.9046C10.8631 12.0826 10.8362 12.2766 10.8589 12.4679C10.905 12.8577 11.1507 13.1945 11.5069 13.3582L14.3602 14.7168L15.0311 13.766L11.9768 12.3354C13.536 11.1082 14.0636 8.69755 14.0636 7.34659V4.53409C14.0636 2.67128 11.485 0.597168 8.99973 0.597168C6.51448 0.597168 3.93244 2.6713 3.93244 4.53409V7.34659C3.93244 8.57543 4.49325 11.0618 6.06735 12.3252L1.12472 14.6583C1.12472 14.6583 0 15.1594 0 15.7833V17.4722C0 18.0938 0.50369 18.5972 1.1247 18.5972H12.3753L11.4608 17.4719L1.12555 17.4722ZM17.8104 13.3172C17.5658 13.1253 17.2119 13.1689 17.0205 13.4135L14.6138 17.0839L13.1179 15.5877C12.8981 15.368 12.5416 15.368 12.3218 15.5877C12.1021 15.8075 12.1021 16.1638 12.3218 16.3835L14.3116 18.3732C14.5313 18.593 14.8876 18.593 15.1073 18.3732C15.1608 18.32 15.2008 18.2581 15.2283 18.1923L17.9069 14.1068C18.0982 13.8623 18.0552 13.5085 17.8104 13.3172Z" fill="#232323"/>
</svg>
