<svg width="20" height="17" viewBox="0 0 20 17" fill="none" xmlns="http://www.w3.org/2000/svg">
<path d="M3.63619 16.2791C2.79918 15.4443 2.1354 14.4524 1.683 13.3603C1.23059 12.2682 0.998482 11.0974 1.00001 9.91528C1.00001 4.94483 5.02955 0.915283 10 0.915283C14.9704 0.915283 19 4.94483 19 9.91528C19.0015 11.0974 18.7694 12.2682 18.317 13.3603C17.8646 14.4524 17.2008 15.4443 16.3638 16.2791" stroke="#232323" stroke-linecap="round" stroke-linejoin="round"/>
<path d="M5.94998 13.9653C5.41744 13.4339 4.99513 12.8026 4.70729 12.1076C4.41945 11.4126 4.27176 10.6675 4.27271 9.91526C4.27271 6.75217 6.83689 4.18799 9.99998 4.18799" stroke="#232323" stroke-linecap="round"/>
<path d="M10 9.9153V6.64258" stroke="#232323" stroke-linecap="round" stroke-linejoin="round"/>
</svg>
