<svg width="26" height="26" viewBox="0 0 26 26" fill="none" xmlns="http://www.w3.org/2000/svg">
<path d="M17.956 3.76629L22.234 8.04428M6.99999 7.00029H2.5C2.10217 7.00029 1.72064 7.15832 1.43934 7.43962C1.15803 7.72093 1 8.10246 1 8.50028V23.5003C1 23.8981 1.15803 24.2796 1.43934 24.5609C1.72064 24.8422 2.10217 25.0003 2.5 25.0003H19C19.3978 25.0003 19.7793 24.8422 20.0606 24.5609C20.3419 24.2796 20.5 23.8981 20.5 23.5003V16.7503M24.1135 1.8853C24.3945 2.16625 24.6175 2.49983 24.7696 2.86697C24.9217 3.23412 25 3.62763 25 4.02504C25 4.42245 24.9217 4.81596 24.7696 5.18311C24.6175 5.55025 24.3945 5.88383 24.1135 6.16479L13.8475 16.4308L8.49999 17.5003L9.56948 12.1528L19.8355 1.8868C20.1162 1.6056 20.4496 1.38252 20.8166 1.23031C21.1837 1.0781 21.5771 0.999756 21.9745 0.999756C22.3718 0.999756 22.7652 1.0781 23.1323 1.23031C23.4993 1.38252 23.8327 1.6056 24.1135 1.8868V1.8853Z" stroke="#232323" stroke-linecap="round" stroke-linejoin="round"/>
</svg>
