<svg width="24" height="22" viewBox="0 0 24 22" fill="none" xmlns="http://www.w3.org/2000/svg">
<path d="M12.12 18.65L12 18.77L11.868 18.65C6.168 13.478 2.4 10.058 2.4 6.58999C2.4 4.18999 4.2 2.38999 6.6 2.38999C8.448 2.38999 10.248 3.58999 10.884 5.22199H13.116C13.752 3.58999 15.552 2.38999 17.4 2.38999C19.8 2.38999 21.6 4.18999 21.6 6.58999C21.6 10.058 17.832 13.478 12.12 18.65ZM17.4 -0.0100098C15.312 -0.0100098 13.308 0.96199 12 2.48599C10.692 0.96199 8.688 -0.0100098 6.6 -0.0100098C2.904 -0.0100098 0 2.88199 0 6.58999C0 11.114 4.08 14.822 10.26 20.426L12 22.01L13.74 20.426C19.92 14.822 24 11.114 24 6.58999C24 2.88199 21.096 -0.0100098 17.4 -0.0100098Z" fill="white"/>
</svg>
