<svg width="18" height="19" viewBox="0 0 18 19" fill="none" xmlns="http://www.w3.org/2000/svg">
<path d="M6.14286 15.2143V17.5M2.71429 1.5H9.57143C9.87453 1.5 10.1652 1.62041 10.3796 1.83474C10.5939 2.04906 10.7143 2.33975 10.7143 2.64286V17.3571C10.7143 17.395 10.6992 17.4314 10.6724 17.4582C10.6457 17.4849 10.6093 17.5 10.5714 17.5H1.57143V2.64286C1.57143 2.33975 1.69184 2.04906 1.90617 1.83474C2.12049 1.62041 2.41118 1.5 2.71429 1.5ZM11.2857 7.21429H15.2857C15.5888 7.21429 15.8795 7.33469 16.0938 7.54902C16.3082 7.76335 16.4286 8.05404 16.4286 8.35714V17.5H10.7143V7.78571C10.7143 7.63416 10.7745 7.48882 10.8817 7.38165C10.9888 7.27449 11.1342 7.21429 11.2857 7.21429Z" stroke="#232323" stroke-linecap="round" stroke-linejoin="round"/>
<path d="M3.35997 15.781C3.24163 15.7964 3.1214 15.7745 3.01618 15.7181C2.91095 15.6618 2.82601 15.5739 2.77326 15.4669C2.72052 15.3598 2.70262 15.2389 2.72209 15.1212C2.74156 15.0034 2.79741 14.8947 2.88181 14.8103C2.9662 14.7259 3.07491 14.67 3.19267 14.6506C3.31042 14.6311 3.43132 14.649 3.53839 14.7017C3.64545 14.7545 3.73332 14.8394 3.78965 14.9447C3.84598 15.0499 3.86795 15.1701 3.85247 15.2885C3.83614 15.4134 3.779 15.5293 3.68993 15.6184C3.60086 15.7075 3.48487 15.7646 3.35997 15.781ZM3.35997 12.9238C3.24163 12.9393 3.1214 12.9173 3.01618 12.861C2.91095 12.8047 2.82601 12.7168 2.77326 12.6097C2.72052 12.5027 2.70262 12.3818 2.72209 12.264C2.74156 12.1463 2.79741 12.0375 2.88181 11.9532C2.9662 11.8688 3.07491 11.8129 3.19267 11.7934C3.31042 11.774 3.43132 11.7919 3.53839 11.8446C3.64545 11.8973 3.73332 11.9823 3.78965 12.0875C3.84598 12.1927 3.86795 12.313 3.85247 12.4313C3.83614 12.5562 3.779 12.6722 3.68993 12.7613C3.60086 12.8503 3.48487 12.9075 3.35997 12.9238ZM3.35997 10.0667C3.24163 10.0821 3.1214 10.0602 3.01618 10.0039C2.91095 9.94752 2.82601 9.85966 2.77326 9.75259C2.72052 9.64552 2.70262 9.52462 2.72209 9.40687C2.74156 9.28911 2.79741 9.1804 2.88181 9.09601C2.9662 9.01161 3.07491 8.95576 3.19267 8.93629C3.31042 8.91683 3.43132 8.93472 3.53839 8.98746C3.64545 9.04021 3.73332 9.12515 3.78965 9.23038C3.84598 9.3356 3.86795 9.45583 3.85247 9.57417C3.83614 9.69907 3.779 9.81506 3.68993 9.90413C3.60086 9.9932 3.48487 10.0503 3.35997 10.0667ZM3.35997 7.20953C3.24163 7.22501 3.1214 7.20304 3.01618 7.14671C2.91095 7.09038 2.82601 7.00251 2.77326 6.89544C2.72052 6.78838 2.70262 6.66748 2.72209 6.54972C2.74156 6.43197 2.79741 6.32326 2.88181 6.23887C2.9662 6.15447 3.07491 6.09862 3.19267 6.07915C3.31042 6.05968 3.43132 6.07758 3.53839 6.13032C3.64545 6.18306 3.73332 6.26801 3.78965 6.37324C3.84598 6.47846 3.86795 6.59868 3.85247 6.71703C3.83614 6.84192 3.779 6.95792 3.68993 7.04699C3.60086 7.13605 3.48487 7.1932 3.35997 7.20953ZM3.35997 4.35239C3.24163 4.36787 3.1214 4.3459 3.01618 4.28957C2.91095 4.23324 2.82601 4.14537 2.77326 4.0383C2.72052 3.93123 2.70262 3.81034 2.72209 3.69258C2.74156 3.57482 2.79741 3.46612 2.88181 3.38172C2.9662 3.29733 3.07491 3.24148 3.19267 3.22201C3.31042 3.20254 3.43132 3.22043 3.53839 3.27318C3.64545 3.32592 3.73332 3.41087 3.78965 3.51609C3.84598 3.62132 3.86795 3.74154 3.85247 3.85989C3.83614 3.98478 3.779 4.10078 3.68993 4.18985C3.60086 4.27891 3.48487 4.33605 3.35997 4.35239ZM6.21711 12.9238C6.09877 12.9393 5.97854 12.9173 5.87332 12.861C5.76809 12.8047 5.68315 12.7168 5.6304 12.6097C5.57766 12.5027 5.55977 12.3818 5.57923 12.264C5.5987 12.1463 5.65455 12.0375 5.73895 11.9532C5.82335 11.8688 5.93205 11.8129 6.04981 11.7934C6.16756 11.774 6.28846 11.7919 6.39553 11.8446C6.5026 11.8973 6.59046 11.9823 6.64679 12.0875C6.70312 12.1927 6.72509 12.313 6.70961 12.4313C6.69328 12.5562 6.63614 12.6722 6.54707 12.7613C6.45801 12.8503 6.34201 12.9075 6.21711 12.9238ZM6.21711 10.0667C6.09877 10.0821 5.97854 10.0602 5.87332 10.0039C5.76809 9.94752 5.68315 9.85966 5.6304 9.75259C5.57766 9.64552 5.55977 9.52462 5.57923 9.40687C5.5987 9.28911 5.65455 9.1804 5.73895 9.09601C5.82335 9.01161 5.93205 8.95576 6.04981 8.93629C6.16756 8.91683 6.28846 8.93472 6.39553 8.98746C6.5026 9.04021 6.59046 9.12515 6.64679 9.23038C6.70312 9.3356 6.72509 9.45583 6.70961 9.57417C6.69328 9.69907 6.63614 9.81506 6.54707 9.90413C6.45801 9.9932 6.34201 10.0503 6.21711 10.0667ZM6.21711 7.20953C6.09877 7.22501 5.97854 7.20304 5.87332 7.14671C5.76809 7.09038 5.68315 7.00251 5.6304 6.89544C5.57766 6.78838 5.55977 6.66748 5.57923 6.54972C5.5987 6.43197 5.65455 6.32326 5.73895 6.23887C5.82335 6.15447 5.93205 6.09862 6.04981 6.07915C6.16756 6.05968 6.28846 6.07758 6.39553 6.13032C6.5026 6.18306 6.59046 6.26801 6.64679 6.37324C6.70312 6.47846 6.72509 6.59868 6.70961 6.71703C6.69328 6.84192 6.63614 6.95792 6.54707 7.04699C6.45801 7.13605 6.34201 7.1932 6.21711 7.20953ZM6.21711 4.35239C6.09877 4.36787 5.97854 4.3459 5.87332 4.28957C5.76809 4.23324 5.68315 4.14537 5.6304 4.0383C5.57766 3.93123 5.55977 3.81034 5.57923 3.69258C5.5987 3.57482 5.65455 3.46612 5.73895 3.38172C5.82335 3.29733 5.93205 3.24148 6.04981 3.22201C6.16756 3.20254 6.28846 3.22043 6.39553 3.27318C6.5026 3.32592 6.59046 3.41087 6.64679 3.51609C6.70312 3.62132 6.72509 3.74154 6.70961 3.85989C6.69328 3.98478 6.63614 4.10078 6.54707 4.18985C6.45801 4.27891 6.34201 4.33605 6.21711 4.35239ZM9.07426 15.781C8.95591 15.7964 8.83569 15.7745 8.73046 15.7181C8.62524 15.6618 8.54029 15.5739 8.48755 15.4669C8.4348 15.3598 8.41691 15.2389 8.43638 15.1212C8.45584 15.0034 8.5117 14.8947 8.59609 14.8103C8.68049 14.7259 8.78919 14.67 8.90695 14.6506C9.02471 14.6311 9.1456 14.649 9.25267 14.7017C9.35974 14.7545 9.44761 14.8394 9.50394 14.9447C9.56027 15.0499 9.58223 15.1701 9.56676 15.2885C9.55042 15.4134 9.49328 15.5293 9.40421 15.6184C9.31515 15.7075 9.19915 15.7646 9.07426 15.781ZM9.07426 12.9238C8.95591 12.9393 8.83569 12.9173 8.73046 12.861C8.62524 12.8047 8.54029 12.7168 8.48755 12.6097C8.4348 12.5027 8.41691 12.3818 8.43638 12.264C8.45584 12.1463 8.5117 12.0375 8.59609 11.9532C8.68049 11.8688 8.78919 11.8129 8.90695 11.7934C9.02471 11.774 9.1456 11.7919 9.25267 11.8446C9.35974 11.8973 9.44761 11.9823 9.50394 12.0875C9.56027 12.1927 9.58223 12.313 9.56676 12.4313C9.55042 12.5562 9.49328 12.6722 9.40421 12.7613C9.31515 12.8503 9.19915 12.9075 9.07426 12.9238ZM9.07426 10.0667C8.95591 10.0821 8.83569 10.0602 8.73046 10.0039C8.62524 9.94752 8.54029 9.85966 8.48755 9.75259C8.4348 9.64552 8.41691 9.52462 8.43638 9.40687C8.45584 9.28911 8.5117 9.1804 8.59609 9.09601C8.68049 9.01161 8.78919 8.95576 8.90695 8.93629C9.02471 8.91683 9.1456 8.93472 9.25267 8.98746C9.35974 9.04021 9.44761 9.12515 9.50394 9.23038C9.56027 9.3356 9.58223 9.45583 9.56676 9.57417C9.55042 9.69907 9.49328 9.81506 9.40421 9.90413C9.31515 9.9932 9.19915 10.0503 9.07426 10.0667Z" fill="#232323"/>
<path d="M9.40473 7.04722C9.62719 6.82476 9.62628 6.46318 9.40271 6.2396C9.17913 6.01603 8.81755 6.01512 8.59509 6.23758C8.37263 6.46004 8.37353 6.82162 8.59711 7.0452C8.82068 7.26877 9.18227 7.26968 9.40473 7.04722Z" fill="#232323"/>
<path d="M9.07424 4.35239C8.9559 4.36787 8.83567 4.3459 8.73045 4.28957C8.62522 4.23324 8.54028 4.14537 8.48753 4.0383C8.43479 3.93123 8.4169 3.81034 8.43636 3.69258C8.45583 3.57482 8.51168 3.46612 8.59608 3.38172C8.68048 3.29733 8.78918 3.24148 8.90694 3.22201C9.02469 3.20254 9.14559 3.22043 9.25266 3.27318C9.35973 3.32592 9.44759 3.41087 9.50392 3.51609C9.56025 3.62132 9.58222 3.74154 9.56674 3.85989C9.55041 3.98478 9.49327 4.10078 9.4042 4.18985C9.31514 4.27891 9.19914 4.33605 9.07424 4.35239ZM14.1428 14.6427C14.0298 14.6427 13.9193 14.6763 13.8253 14.739C13.7314 14.8018 13.6581 14.8911 13.6149 14.9955C13.5716 15.0999 13.5603 15.2148 13.5824 15.3257C13.6044 15.4365 13.6588 15.5383 13.7388 15.6182C13.8187 15.6981 13.9205 15.7526 14.0313 15.7746C14.1422 15.7967 14.2571 15.7854 14.3615 15.7421C14.4659 15.6989 14.5552 15.6256 14.6179 15.5316C14.6807 15.4377 14.7142 15.3272 14.7142 15.2142C14.7142 15.0626 14.654 14.9173 14.5469 14.8101C14.4397 14.7029 14.2944 14.6427 14.1428 14.6427ZM14.1428 11.7856C14.0298 11.7856 13.9193 11.8191 13.8253 11.8819C13.7314 11.9447 13.6581 12.0339 13.6149 12.1384C13.5716 12.2428 13.5603 12.3577 13.5824 12.4685C13.6044 12.5794 13.6588 12.6812 13.7388 12.7611C13.8187 12.841 13.9205 12.8954 14.0313 12.9175C14.1422 12.9395 14.2571 12.9282 14.3615 12.885C14.4659 12.8417 14.5552 12.7685 14.6179 12.6745C14.6807 12.5805 14.7142 12.47 14.7142 12.357C14.7142 12.2055 14.654 12.0601 14.5469 11.953C14.4397 11.8458 14.2944 11.7856 14.1428 11.7856ZM14.1428 8.92846C14.0298 8.92846 13.9193 8.96197 13.8253 9.02476C13.7314 9.08755 13.6581 9.1768 13.6149 9.28121C13.5716 9.38563 13.5603 9.50052 13.5824 9.61137C13.6044 9.72221 13.6588 9.82403 13.7388 9.90395C13.8187 9.98386 13.9205 10.0383 14.0313 10.0603C14.1422 10.0824 14.2571 10.0711 14.3615 10.0278C14.4659 9.98457 14.5552 9.91133 14.6179 9.81736C14.6807 9.72338 14.7142 9.6129 14.7142 9.49989C14.7142 9.34833 14.654 9.20299 14.5469 9.09583C14.4397 8.98866 14.2944 8.92846 14.1428 8.92846ZM11.8571 14.6427C11.7441 14.6427 11.6336 14.6763 11.5396 14.739C11.4457 14.8018 11.3724 14.8911 11.3292 14.9955C11.2859 15.0999 11.2746 15.2148 11.2967 15.3257C11.3187 15.4365 11.3731 15.5383 11.453 15.6182C11.533 15.6981 11.6348 15.7526 11.7456 15.7746C11.8565 15.7967 11.9714 15.7854 12.0758 15.7421C12.1802 15.6989 12.2694 15.6256 12.3322 15.5316C12.395 15.4377 12.4285 15.3272 12.4285 15.2142C12.4285 15.0626 12.3683 14.9173 12.2612 14.8101C12.154 14.7029 12.0087 14.6427 11.8571 14.6427ZM11.8571 11.7856C11.7441 11.7856 11.6336 11.8191 11.5396 11.8819C11.4457 11.9447 11.3724 12.0339 11.3292 12.1384C11.2859 12.2428 11.2746 12.3577 11.2967 12.4685C11.3187 12.5794 11.3731 12.6812 11.453 12.7611C11.533 12.841 11.6348 12.8954 11.7456 12.9175C11.8565 12.9395 11.9714 12.9282 12.0758 12.885C12.1802 12.8417 12.2694 12.7685 12.3322 12.6745C12.395 12.5805 12.4285 12.47 12.4285 12.357C12.4285 12.2055 12.3683 12.0601 12.2612 11.953C12.154 11.8458 12.0087 11.7856 11.8571 11.7856ZM11.8571 8.92846C11.7441 8.92846 11.6336 8.96197 11.5396 9.02476C11.4457 9.08755 11.3724 9.1768 11.3292 9.28121C11.2859 9.38563 11.2746 9.50052 11.2967 9.61137C11.3187 9.72221 11.3731 9.82403 11.453 9.90395C11.533 9.98386 11.6348 10.0383 11.7456 10.0603C11.8565 10.0824 11.9714 10.0711 12.0758 10.0278C12.1802 9.98457 12.2694 9.91133 12.3322 9.81736C12.395 9.72338 12.4285 9.6129 12.4285 9.49989C12.4285 9.34833 12.3683 9.20299 12.2612 9.09583C12.154 8.98866 12.0087 8.92846 11.8571 8.92846Z" fill="#232323"/>
</svg>
