<svg width="61" height="60" viewBox="0 0 61 60" fill="none" xmlns="http://www.w3.org/2000/svg">
<rect x="0.961426" y="0.5" width="59" height="59" rx="29.5" fill="white"/>
<rect x="0.961426" y="0.5" width="59" height="59" rx="29.5" stroke="#E9E9E9"/>
<g clip-path="url(#clip0_1_652)">
<path fill-rule="evenodd" clip-rule="evenodd" d="M42.2214 30.2667C42.2214 29.28 42.1414 28.56 41.9681 27.8133H30.7014V32.2666H37.3147C37.1814 33.3733 36.4614 35.04 34.8614 36.1599L34.839 36.309L38.4012 39.0687L38.6481 39.0934C40.9147 37 42.2214 33.92 42.2214 30.2667Z" fill="#4285F4"/>
<path fill-rule="evenodd" clip-rule="evenodd" d="M30.7015 42C33.9415 42 36.6614 40.9333 38.6482 39.0934L34.8615 36.1599C33.8482 36.8666 32.4881 37.36 30.7015 37.36C27.5282 37.36 24.8349 35.2667 23.8748 32.3734L23.7341 32.3853L20.0299 35.252L19.9814 35.3867C21.9548 39.3066 26.0081 42 30.7015 42Z" fill="#34A853"/>
<path fill-rule="evenodd" clip-rule="evenodd" d="M23.8749 32.3734C23.6216 31.6267 23.4749 30.8267 23.4749 30.0001C23.4749 29.1733 23.6215 28.3734 23.8615 27.6267L23.8548 27.4677L20.1043 24.5549L19.9816 24.6133C19.1683 26.24 18.7017 28.0666 18.7017 30C18.7017 31.9333 19.1684 33.7599 19.9816 35.3866L23.8749 32.3733" fill="#FBBC04"/>
<path fill-rule="evenodd" clip-rule="evenodd" d="M30.7015 22.64C32.9548 22.64 34.4748 23.6133 35.3415 24.4267L38.7282 21.12C36.6482 19.1867 33.9415 18.0001 30.7015 18.0001C26.0081 18.0001 21.9548 20.6934 19.9814 24.6133L23.8615 27.6268C24.8349 24.7334 27.5282 22.64 30.7015 22.64" fill="#EA4335"/>
</g>
<defs>
<clipPath id="clip0_1_652">
<rect width="23.52" height="24" fill="white" transform="translate(18.7014 18)"/>
</clipPath>
</defs>
</svg>
