<svg width="15" height="9" viewBox="0 0 15 9" fill="none" xmlns="http://www.w3.org/2000/svg">
<path d="M4.31818 8.318V7.68164C4.31818 6.83777 4.65341 6.02846 5.25011 5.43176C5.84682 4.83505 6.65613 4.49982 7.5 4.49982M7.5 4.49982C8.34387 4.49982 9.15318 4.83505 9.74989 5.43176C10.3466 6.02846 10.6818 6.83777 10.6818 7.68164V8.318M7.5 4.49982C8.00632 4.49982 8.49191 4.29869 8.84993 3.94066C9.20796 3.58264 9.40909 3.09705 9.40909 2.59073C9.40909 2.08441 9.20796 1.59882 8.84993 1.2408C8.49191 0.882776 8.00632 0.681641 7.5 0.681641C6.99368 0.681641 6.50809 0.882776 6.15007 1.2408C5.79204 1.59882 5.59091 2.08441 5.59091 2.59073C5.59091 3.09705 5.79204 3.58264 6.15007 3.94066C6.50809 4.29869 6.99368 4.49982 7.5 4.49982ZM0.5 8.318V7.68164C0.5 7.17532 0.701136 6.68973 1.05916 6.33171C1.41718 5.97369 1.90277 5.77255 2.40909 5.77255M2.40909 5.77255C2.74664 5.77255 3.07036 5.63846 3.30905 5.39978C3.54773 5.16109 3.68182 4.83737 3.68182 4.49982C3.68182 4.16227 3.54773 3.83855 3.30905 3.59987C3.07036 3.36119 2.74664 3.2271 2.40909 3.2271C2.07154 3.2271 1.74782 3.36119 1.50914 3.59987C1.27045 3.83855 1.13636 4.16227 1.13636 4.49982C1.13636 4.83737 1.27045 5.16109 1.50914 5.39978C1.74782 5.63846 2.07154 5.77255 2.40909 5.77255ZM14.5 8.318V7.68164C14.5 7.17532 14.2989 6.68973 13.9408 6.33171C13.5828 5.97369 13.0972 5.77255 12.5909 5.77255M12.5909 5.77255C12.9285 5.77255 13.2522 5.63846 13.4909 5.39978C13.7295 5.16109 13.8636 4.83737 13.8636 4.49982C13.8636 4.16227 13.7295 3.83855 13.4909 3.59987C13.2522 3.36119 12.9285 3.2271 12.5909 3.2271C12.2534 3.2271 11.9296 3.36119 11.691 3.59987C11.4523 3.83855 11.3182 4.16227 11.3182 4.49982C11.3182 4.83737 11.4523 5.16109 11.691 5.39978C11.9296 5.63846 12.2534 5.77255 12.5909 5.77255Z" stroke="#798889" stroke-linecap="round" stroke-linejoin="round"/>
</svg>
