<svg width="24" height="24" viewBox="0 0 24 24" fill="none" xmlns="http://www.w3.org/2000/svg">
<path fill-rule="evenodd" clip-rule="evenodd" d="M1.90831 16.1417C-1.16541 8.59822 4.38452 0.34375 12.5296 0.34375H12.9685C15.894 0.344475 18.6995 1.50695 20.7682 3.5756C22.8368 5.64425 23.9993 8.44973 24 11.3752C24.0004 12.9881 23.6829 14.5853 23.0659 16.0755C22.4488 17.5657 21.5442 18.9197 20.4037 20.0602C19.2632 21.2007 17.9092 22.1053 16.419 22.7223C14.9288 23.3394 13.3317 23.6568 11.7188 23.6564H1.0264C0.813943 23.6566 0.606676 23.5908 0.433237 23.4681C0.259797 23.3454 0.128747 23.1719 0.0581955 22.9715C-0.012356 22.7711 -0.0189256 22.5537 0.0393945 22.3495C0.0977146 22.1452 0.218045 21.964 0.383758 21.8311L3.07873 19.6666C3.13635 19.6205 3.17748 19.5569 3.19597 19.4854C3.21445 19.4139 3.2093 19.3384 3.18128 19.2701L1.90831 16.1417ZM12.5296 2.39472C5.83934 2.39472 1.28208 9.17249 3.80614 15.3678L5.08048 18.4976C5.27464 18.9747 5.30966 19.5017 5.18033 20.0003C5.051 20.4989 4.76423 20.9424 4.36264 21.265L3.94014 21.6055H11.7188C13.0623 21.6058 14.3928 21.3415 15.6342 20.8275C16.8755 20.3135 18.0034 19.5599 18.9535 18.6099C19.9035 17.6599 20.657 16.532 21.171 15.2906C21.685 14.0493 21.9494 12.7188 21.949 11.3752C21.9483 8.99368 21.0019 6.70987 19.3179 5.02585C17.6339 3.34184 15.3501 2.39545 12.9685 2.39472H12.5296Z" fill="white"/>
</svg>
