<svg width="64" height="32" viewBox="0 0 64 32" fill="none" xmlns="http://www.w3.org/2000/svg">
<path d="M27.6511 8L29.436 10.7384L27.6511 13.4764M32.2951 8L34.08 10.7384L32.2951 13.4764M36.9391 8L38.724 10.7384L36.9391 13.4764M24 13.4764H41.9995M35.6839 19.0666L32.0927 16.9932C31.9988 16.9388 31.8922 16.9102 31.7836 16.9101C31.6751 16.9101 31.5685 16.9386 31.4745 16.9929C31.3805 17.0471 31.3024 17.1252 31.2482 17.2192C31.1939 17.3132 31.1654 17.4198 31.1655 17.5283V21.6751C31.1654 21.7837 31.1939 21.8903 31.2482 21.9843C31.3024 22.0783 31.3805 22.1564 31.4745 22.2106C31.5685 22.2649 31.6751 22.2934 31.7836 22.2933C31.8922 22.2933 31.9988 22.2646 32.0927 22.2103L35.6839 20.1369C35.7779 20.0826 35.8559 20.0046 35.9102 19.9107C35.9644 19.8168 35.993 19.7102 35.993 19.6017C35.993 19.4933 35.9644 19.3867 35.9102 19.2927C35.8559 19.1988 35.7779 19.1208 35.6839 19.0666Z" stroke="black" stroke-width="0.75" stroke-linecap="round" stroke-linejoin="round"/>
<path d="M40.0541 8H25.9459C25.4298 8 24.9349 8.20502 24.57 8.56995C24.205 8.93489 24 9.42985 24 9.94595V24.0541C24 24.5702 24.205 25.0651 24.57 25.43C24.9349 25.795 25.4298 26 25.9459 26H40.0541C40.5702 26 41.0651 25.795 41.43 25.43C41.795 25.0651 42 24.5702 42 24.0541V9.94595C42 9.42985 41.795 8.93489 41.43 8.56995C41.0651 8.20502 40.5702 8 40.0541 8Z" stroke="black" stroke-width="0.75" stroke-linecap="round" stroke-linejoin="round"/>
</svg>
