<svg width="64" height="32" viewBox="0 0 64 32" fill="none" xmlns="http://www.w3.org/2000/svg">
<path d="M25.7236 9.20084C25.8323 9.09536 25.9785 9.03736 26.1299 9.03961C26.2814 9.04186 26.4257 9.10417 26.5312 9.21284C26.646 9.33345 26.7089 9.49426 26.7065 9.66074C26.704 9.82722 26.6363 9.98609 26.518 10.1032C24.9665 11.6734 24.0975 13.7926 24.1 16C24.1 18.388 25.096 20.5432 26.6968 22.072C26.7584 22.1293 26.8079 22.1982 26.8426 22.2748C26.8774 22.3514 26.8966 22.4341 26.8991 22.5181C26.9017 22.6021 26.8876 22.6858 26.8576 22.7644C26.8276 22.8429 26.7823 22.9147 26.7244 22.9756C26.6212 23.0823 26.4805 23.1444 26.3321 23.1489C26.1838 23.1534 26.0395 23.0999 25.93 22.9996C24.9724 22.1027 24.2093 21.0186 23.6881 19.8145C23.1668 18.6104 22.8986 17.3121 22.9 16C22.9 13.3432 23.98 10.9384 25.7236 9.20084ZM38.482 10.1032C38.3639 9.98593 38.2964 9.82697 38.2942 9.66049C38.292 9.49401 38.3551 9.33329 38.47 9.21284C38.5755 9.10454 38.7196 9.04246 38.8707 9.04021C39.0219 9.03796 39.1678 9.09573 39.2764 9.20084C40.1724 10.0918 40.8831 11.1513 41.3678 12.3182C41.8524 13.4852 42.1012 14.7365 42.1 16C42.1 18.76 40.936 21.2488 39.07 22.9996C38.9606 23.0999 38.8163 23.1534 38.668 23.1489C38.5196 23.1444 38.3789 23.0823 38.2756 22.9756C38.2179 22.9147 38.1728 22.843 38.1429 22.7646C38.113 22.6861 38.099 22.6026 38.1015 22.5187C38.1041 22.4348 38.1232 22.3523 38.1579 22.2758C38.1925 22.1994 38.2419 22.1305 38.3032 22.0732C39.1251 21.2898 39.7791 20.3474 40.2255 19.3034C40.672 18.2594 40.9014 17.1355 40.9 16C40.9029 13.7922 40.0339 11.6737 38.482 10.1032ZM27.8584 11.308C27.9654 11.2062 28.1084 11.151 28.256 11.1546C28.4036 11.1582 28.5438 11.2203 28.6456 11.3272C28.8952 11.5768 28.87 11.9872 28.624 12.2392C27.6464 13.247 27.0998 14.596 27.1 16C27.1 17.548 27.7516 18.9448 28.7968 19.93C29.0608 20.1784 29.0968 20.6032 28.8388 20.8612C28.7399 20.9641 28.6053 21.0249 28.4627 21.0312C28.3202 21.0374 28.1808 20.9886 28.0732 20.8948C27.389 20.2761 26.8422 19.5209 26.4678 18.6778C26.0935 17.8347 25.9001 16.9225 25.9 16C25.8987 15.1271 26.0712 14.2627 26.4074 13.4571C26.7437 12.6516 27.2369 11.921 27.8584 11.308ZM36.376 12.2392C36.13 11.9872 36.1048 11.5768 36.3544 11.3272C36.4563 11.2203 36.5964 11.1582 36.7441 11.1546C36.8917 11.151 37.0347 11.2062 37.1416 11.308C37.7631 11.921 38.2564 12.6516 38.5926 13.4571C38.9289 14.2627 39.1013 15.1271 39.1 16C39.1003 16.9226 38.9071 17.835 38.533 18.6783C38.1589 19.5216 37.6121 20.2771 36.928 20.896C36.8201 20.9902 36.6799 21.039 36.5368 21.0323C36.3937 21.0256 36.2587 20.9639 36.16 20.86C35.9032 20.6032 35.9392 20.1784 36.2032 19.93C36.739 19.4252 37.1659 18.8162 37.4577 18.1404C37.7495 17.4645 37.9 16.7362 37.9 16C37.9003 14.596 37.3536 13.247 36.376 12.2392ZM32.5 14.5C32.1022 14.5 31.7207 14.6581 31.4394 14.9394C31.1581 15.2207 31 15.6022 31 16C31 16.3979 31.1581 16.7794 31.4394 17.0607C31.7207 17.342 32.1022 17.5 32.5 17.5C32.8979 17.5 33.2794 17.342 33.5607 17.0607C33.842 16.7794 34 16.3979 34 16C34 15.6022 33.842 15.2207 33.5607 14.9394C33.2794 14.6581 32.8979 14.5 32.5 14.5Z" fill="#232323"/>
</svg>
