<svg width="64" height="32" viewBox="0 0 64 32" fill="none" xmlns="http://www.w3.org/2000/svg">
<path d="M24.5 22C24.5 20.9391 24.9214 19.9217 25.6716 19.1716C26.4217 18.4214 27.4391 18 28.5 18H36.5C37.5609 18 38.5783 18.4214 39.3284 19.1716C40.0786 19.9217 40.5 20.9391 40.5 22C40.5 22.5304 40.2893 23.0391 39.9142 23.4142C39.5391 23.7893 39.0304 24 38.5 24H26.5C25.9696 24 25.4609 23.7893 25.0858 23.4142C24.7107 23.0391 24.5 22.5304 24.5 22Z" stroke="#232323" stroke-linejoin="round"/>
<path d="M32.5 14C34.1569 14 35.5 12.6569 35.5 11C35.5 9.34315 34.1569 8 32.5 8C30.8431 8 29.5 9.34315 29.5 11C29.5 12.6569 30.8431 14 32.5 14Z" stroke="#232323"/>
</svg>
