<svg width="64" height="32" viewBox="0 0 64 32" fill="none" xmlns="http://www.w3.org/2000/svg">
<path d="M31.75 11.375C31.75 12.2701 31.3944 13.1286 30.7615 13.7615C30.1286 14.3944 29.2701 14.75 28.375 14.75C27.4799 14.75 26.6214 14.3944 25.9885 13.7615C25.3556 13.1286 25 12.2701 25 11.375C25 10.4799 25.3556 9.62145 25.9885 8.98851C26.6214 8.35558 27.4799 8 28.375 8C29.2701 8 30.1286 8.35558 30.7615 8.98851C31.3944 9.62145 31.75 10.4799 31.75 11.375ZM26.125 11.375C26.125 11.9717 26.3621 12.544 26.784 12.966C27.206 13.3879 27.7783 13.625 28.375 13.625C28.9717 13.625 29.544 13.3879 29.966 12.966C30.3879 12.544 30.625 11.9717 30.625 11.375C30.625 10.7783 30.3879 10.206 29.966 9.78401C29.544 9.36205 28.9717 9.125 28.375 9.125C27.7783 9.125 27.206 9.36205 26.784 9.78401C26.3621 10.206 26.125 10.7783 26.125 11.375Z" fill="#232323"/>
<path d="M35.125 14.75H35.6875C36.2332 14.7499 36.7604 14.9482 37.1708 15.3079C37.5812 15.6676 37.8469 16.1642 37.9184 16.7052L41.4171 15.1505C41.5884 15.0742 41.776 15.0419 41.9629 15.0565C42.1498 15.0712 42.3301 15.1323 42.4874 15.2344C42.6447 15.3364 42.7739 15.4762 42.8635 15.6409C42.953 15.8056 42.9999 15.9901 43 16.1776V24.5724C42.9998 24.7597 42.9529 24.944 42.8634 25.1086C42.774 25.2732 42.6448 25.4129 42.4877 25.5149C42.3306 25.6169 42.1505 25.6781 41.9637 25.6929C41.7769 25.7077 41.5895 25.6756 41.4182 25.5995L37.9184 24.0448C37.8469 24.5858 37.5812 25.0824 37.1708 25.4421C36.7604 25.8018 36.2332 26.0001 35.6875 26H27.25C26.6533 26 26.081 25.7629 25.659 25.341C25.2371 24.919 25 24.3467 25 23.75V17C25 16.4033 25.2371 15.831 25.659 15.409C26.081 14.9871 26.6533 14.75 27.25 14.75H35.125ZM41.875 24.5712V16.1788L37.9375 17.9281V22.8219L41.875 24.5712ZM26.125 17V23.75C26.125 24.0484 26.2435 24.3345 26.4545 24.5455C26.6655 24.7565 26.9516 24.875 27.25 24.875H35.6875C35.9859 24.875 36.272 24.7565 36.483 24.5455C36.694 24.3345 36.8125 24.0484 36.8125 23.75V17C36.8125 16.7016 36.694 16.4155 36.483 16.2045C36.272 15.9935 35.9859 15.875 35.6875 15.875H27.25C26.9516 15.875 26.6655 15.9935 26.4545 16.2045C26.2435 16.4155 26.125 16.7016 26.125 17Z" fill="#232323"/>
<path d="M35.125 14.75C36.0201 14.75 36.8786 14.3944 37.5115 13.7615C38.1444 13.1286 38.5 12.2701 38.5 11.375C38.5 10.4799 38.1444 9.62145 37.5115 8.98851C36.8786 8.35558 36.0201 8 35.125 8C34.2299 8 33.3714 8.35558 32.7385 8.98851C32.1056 9.62145 31.75 10.4799 31.75 11.375C31.75 12.2701 32.1056 13.1286 32.7385 13.7615C33.3714 14.3944 34.2299 14.75 35.125 14.75ZM32.875 11.375C32.875 10.7783 33.1121 10.206 33.534 9.78401C33.956 9.36205 34.5283 9.125 35.125 9.125C35.7217 9.125 36.294 9.36205 36.716 9.78401C37.1379 10.206 37.375 10.7783 37.375 11.375C37.375 11.9717 37.1379 12.544 36.716 12.966C36.294 13.3879 35.7217 13.625 35.125 13.625C34.5283 13.625 33.956 13.3879 33.534 12.966C33.1121 12.544 32.875 11.9717 32.875 11.375Z" fill="#232323"/>
</svg>
