<svg width="64" height="32" viewBox="0 0 64 32" fill="none" xmlns="http://www.w3.org/2000/svg">
<path fill-rule="evenodd" clip-rule="evenodd" d="M33 24.8C35.3339 24.8 37.5722 23.8729 39.2225 22.2225C40.8729 20.5722 41.8 18.3339 41.8 16C41.8 13.6661 40.8729 11.4278 39.2225 9.77746C37.5722 8.12714 35.3339 7.2 33 7.2C30.6661 7.2 28.4278 8.12714 26.7775 9.77746C25.1271 11.4278 24.2 13.6661 24.2 16C24.2 18.3339 25.1271 20.5722 26.7775 22.2225C28.4278 23.8729 30.6661 24.8 33 24.8ZM33 26C27.477 26 23 21.523 23 16C23 10.477 27.477 6 33 6C38.523 6 43 10.477 43 16C43 21.523 38.523 26 33 26ZM32.123 15.123L30.267 18.733L33.877 16.877L35.733 13.267L32.123 15.123ZM31.233 14.233L37.124 11.203C37.2182 11.1544 37.3254 11.1369 37.4301 11.1532C37.5348 11.1695 37.6317 11.2186 37.7067 11.2935C37.7817 11.3684 37.8309 11.4651 37.8473 11.5698C37.8638 11.6745 37.8465 11.7818 37.798 11.876L34.768 17.768L28.876 20.798C28.7817 20.8469 28.6743 20.8644 28.5694 20.8482C28.4645 20.8319 28.3674 20.7827 28.2924 20.7076C28.2173 20.6326 28.168 20.5355 28.1518 20.4306C28.1356 20.3257 28.1531 20.2183 28.202 20.124L31.232 14.232L31.233 14.233Z" fill="#232323"/>
</svg>
