<svg width="18" height="19" viewBox="0 0 18 19" fill="none" xmlns="http://www.w3.org/2000/svg">
<path d="M9 1.5C5.48 1.5 2.6 4.38 2.6 7.9C2.6 12.22 8.2 17.1 8.44 17.34C8.6 17.42 8.84 17.5 9 17.5C9.16 17.5 9.4 17.42 9.56 17.34C9.8 17.1 15.4 12.22 15.4 7.9C15.4 4.38 12.52 1.5 9 1.5ZM9 15.66C7.32 14.06 4.2 10.62 4.2 7.9C4.2 5.26 6.36 3.1 9 3.1C11.64 3.1 13.8 5.26 13.8 7.9C13.8 10.54 10.68 14.06 9 15.66ZM9 4.7C7.24 4.7 5.8 6.14 5.8 7.9C5.8 9.66 7.24 11.1 9 11.1C10.76 11.1 12.2 9.66 12.2 7.9C12.2 6.14 10.76 4.7 9 4.7ZM9 9.5C8.12 9.5 7.4 8.78 7.4 7.9C7.4 7.02 8.12 6.3 9 6.3C9.88 6.3 10.6 7.02 10.6 7.9C10.6 8.78 9.88 9.5 9 9.5Z" fill="#232323"/>
</svg>
