<svg width="19" height="27" viewBox="0 0 19 27" fill="none" xmlns="http://www.w3.org/2000/svg">
<path d="M9.53829 1C4.82444 1 1 4.64004 1 9.12323C1 14.2818 6.69219 22.4566 8.78229 25.2802C8.86905 25.3994 8.98276 25.4963 9.11415 25.5632C9.24553 25.6301 9.39086 25.6649 9.53829 25.6649C9.68571 25.6649 9.83104 25.6301 9.96243 25.5632C10.0938 25.4963 10.2075 25.3994 10.2943 25.2802C12.3844 22.4578 18.0766 14.2859 18.0766 9.12323C18.0766 4.64004 14.2521 1 9.53829 1Z" stroke="#232323" stroke-linecap="round" stroke-linejoin="round"/>
<path d="M9.53799 12.3843C11.1098 12.3843 12.3841 11.1101 12.3841 9.53824C12.3841 7.96638 11.1098 6.69214 9.53799 6.69214C7.96613 6.69214 6.69189 7.96638 6.69189 9.53824C6.69189 11.1101 7.96613 12.3843 9.53799 12.3843Z" stroke="#232323" stroke-linecap="round" stroke-linejoin="round"/>
</svg>
