<svg width="24" height="23" viewBox="0 0 24 23" fill="none" xmlns="http://www.w3.org/2000/svg">
<path d="M23.1495 17.7842C23.7417 16.5558 24.0323 15.2038 23.9971 13.8405C23.962 12.4772 23.602 11.142 22.9471 9.94583C22.2923 8.74961 21.3615 7.72691 20.232 6.96267C19.1025 6.19844 17.807 5.71473 16.4531 5.55174C16.0026 4.50428 15.3476 3.55723 14.5265 2.76606C13.7054 1.97488 12.7347 1.35549 11.6713 0.94414C10.6078 0.532793 9.47296 0.337763 8.3332 0.370471C7.19343 0.403179 6.07164 0.662967 5.03353 1.13462C3.99542 1.60628 3.06184 2.28032 2.28748 3.11728C1.51311 3.95424 0.913524 4.93729 0.52382 6.00886C0.134117 7.08043 -0.0378666 8.21899 0.017941 9.35786C0.0737487 10.4967 0.356226 11.613 0.84883 12.6414L0.0699044 15.2888C-0.0171862 15.5844 -0.0230095 15.898 0.0530471 16.1966C0.129104 16.4951 0.284228 16.7677 0.502101 16.9856C0.719974 17.2034 0.99254 17.3586 1.29112 17.4346C1.58971 17.5107 1.90327 17.5049 2.19883 17.4178L4.84632 16.6388C5.69643 17.0473 6.60784 17.3133 7.54417 17.4263C7.99907 18.4922 8.66539 19.4547 9.50284 20.2558C10.3403 21.0568 11.3315 21.6797 12.4165 22.0868C13.5015 22.4939 14.6578 22.6768 15.8155 22.6243C16.9732 22.5719 18.1082 22.2852 19.152 21.7817L21.7995 22.5606C22.0949 22.6476 22.4083 22.6534 22.7068 22.5774C23.0053 22.5014 23.2777 22.3463 23.4956 22.1286C23.7134 21.9109 23.8685 21.6385 23.9447 21.3401C24.0209 21.0417 24.0152 20.7282 23.9284 20.4328L23.1495 17.7842ZM4.92775 14.8635C4.84584 14.8637 4.76435 14.8753 4.6856 14.8978L1.71347 15.7742L2.58882 12.7999C2.65108 12.585 2.62686 12.3543 2.52133 12.1571C1.74595 10.707 1.51748 9.02655 1.87758 7.42209C2.23767 5.81762 3.16235 4.39599 4.48305 3.41633C5.80374 2.43668 7.43251 1.96424 9.07243 2.08514C10.7124 2.20605 12.2542 2.91224 13.417 4.07499C14.5797 5.23773 15.2859 6.77961 15.4068 8.41953C15.5277 10.0595 15.0553 11.6882 14.0756 13.0089C13.096 14.3296 11.6743 15.2543 10.0699 15.6144C8.46542 15.9745 6.78498 15.746 5.33489 14.9706C5.21019 14.9016 5.07026 14.8648 4.92775 14.8635ZM21.4052 17.9417L22.2848 20.917L19.3106 20.0417C19.0957 19.9794 18.865 20.0037 18.6677 20.1092C17.0893 20.952 15.2442 21.145 13.5255 20.647C11.8069 20.1491 10.3507 18.9996 9.46737 17.4435C10.641 17.321 11.7766 16.9573 12.803 16.3752C13.8295 15.7931 14.7245 15.0051 15.432 14.0608C16.1396 13.1165 16.6443 12.0361 16.9146 10.8875C17.1849 9.73886 17.2149 8.54678 17.0027 7.38602C18.0253 7.62705 18.9788 8.09982 19.7896 8.76784C20.6005 9.43585 21.247 10.2813 21.6792 11.2388C22.1115 12.1963 22.318 13.2404 22.2827 14.2903C22.2475 15.3403 21.9714 16.3682 21.4759 17.2946C21.3692 17.493 21.345 17.7255 21.4084 17.9417H21.4052Z" fill="#798889"/>
</svg>
