<svg width="20" height="19" viewBox="0 0 20 19" fill="none" xmlns="http://www.w3.org/2000/svg">
<path d="M10 18.5C11.78 18.5 13.5201 17.9722 15.0001 16.9832C16.4802 15.9943 17.6337 14.5887 18.3149 12.9442C18.9961 11.2996 19.1743 9.49002 18.8271 7.74419C18.4798 5.99836 17.6226 4.39472 16.364 3.13604C15.1053 1.87737 13.5016 1.0202 11.7558 0.672937C10.01 0.32567 8.20038 0.5039 6.55585 1.18509C4.91131 1.86628 3.50571 3.01983 2.51677 4.49987C1.52784 5.97991 1 7.71997 1 9.5C1 10.988 1.36 12.39 2 13.627L1 18.5L5.873 17.5C7.109 18.139 8.513 18.5 10 18.5Z" stroke="#798889" stroke-width="0.5" stroke-linecap="round" stroke-linejoin="round"/>
</svg>
