<svg width="185" height="238" viewBox="0 0 185 238" fill="none" xmlns="http://www.w3.org/2000/svg">
<rect x="5" width="175" height="175" rx="87.5" fill="#798889" fill-opacity="0.3"/>
<path d="M138.824 114.119C141.359 108.995 142.617 103.335 142.491 97.6199C142.366 91.9051 140.86 86.3054 138.102 81.2983C135.345 76.2912 131.417 72.0252 126.655 68.864C121.892 65.7028 116.436 63.7402 110.751 63.1434C108.945 58.7392 106.271 54.7436 102.888 51.3951C99.505 48.0466 95.4822 45.4137 91.0596 43.6534C86.637 41.8932 81.9053 41.0416 77.1465 41.1495C72.3877 41.2574 67.6994 42.3226 63.3611 44.2815C59.0229 46.2404 55.1236 49.0529 51.8957 52.5513C48.6679 56.0497 46.1777 60.1624 44.5736 64.6439C42.9695 69.1255 42.2844 73.8843 42.5591 78.6363C42.8338 83.3884 44.0627 88.0365 46.1726 92.3034L42.7684 103.856C42.4402 104.956 42.4154 106.124 42.6966 107.236C42.9779 108.349 43.5547 109.365 44.3661 110.176C45.1775 110.987 46.1933 111.564 47.3058 111.845C48.4182 112.127 49.5861 112.102 50.6856 111.774L62.2569 108.37C66.0182 110.226 70.0792 111.4 74.2508 111.837C76.0943 116.341 78.8454 120.418 82.333 123.812C85.8204 127.207 89.9696 129.847 94.5219 131.568C99.0742 133.29 103.932 134.055 108.793 133.817C113.654 133.579 118.414 132.343 122.776 130.185L134.311 133.589C135.411 133.917 136.579 133.942 137.691 133.661C138.804 133.38 139.819 132.803 140.631 131.991C141.442 131.18 142.019 130.164 142.3 129.052C142.582 127.939 142.557 126.771 142.229 125.672L138.824 114.119ZM62.5023 102.72C62.2424 102.72 61.9837 102.757 61.7342 102.829L49.1131 106.542C48.9567 106.588 48.7908 106.591 48.633 106.55C48.4751 106.51 48.3311 106.428 48.2158 106.313C48.1006 106.197 48.0185 106.053 47.978 105.895C47.9376 105.738 47.9403 105.572 47.986 105.415L51.6991 92.7942C51.8988 92.1063 51.8222 91.3677 51.4855 90.7354C48.0936 84.3921 47.0941 77.041 48.6693 70.0224C50.2445 63.0037 54.2895 56.7848 60.0668 52.4993C65.8441 48.2138 72.9691 46.1471 80.1429 46.676C87.3167 47.2048 94.0616 50.294 99.148 55.3805C104.234 60.4669 107.324 67.2117 107.853 74.3855C108.381 81.5593 106.315 88.6843 102.029 94.4617C97.7437 100.239 91.5248 104.284 84.5061 105.859C77.4874 107.434 70.1364 106.435 63.7931 103.043C63.396 102.83 62.9526 102.72 62.5023 102.72ZM133.271 114.61L136.984 127.231C137.029 127.387 137.032 127.553 136.992 127.711C136.951 127.869 136.869 128.013 136.754 128.128C136.639 128.243 136.495 128.325 136.337 128.366C136.179 128.406 136.013 128.404 135.857 128.358L123.236 124.645C122.548 124.446 121.809 124.522 121.177 124.858C117.653 126.742 113.788 127.903 109.81 128.272C105.832 128.642 101.82 128.213 98.0092 127.01C94.1989 125.808 90.6671 123.856 87.6214 121.27C84.5756 118.684 82.0772 115.516 80.2728 111.951C85.3718 111.619 90.3387 110.188 94.8323 107.755C99.326 105.323 103.24 101.946 106.306 97.8582C109.371 93.7702 111.516 89.0671 112.592 84.0719C113.669 79.0768 113.651 73.9078 112.541 68.92C117.175 69.7863 121.539 71.7324 125.279 74.6004C129.02 77.4684 132.032 81.1776 134.072 85.4272C136.111 89.6768 137.12 94.3473 137.017 99.0598C136.915 103.772 135.703 108.394 133.48 112.551C133.149 113.186 133.079 113.924 133.284 114.61H133.271Z" fill="black"/>
<path d="M16.2713 214.545V232H13.4588L5.23435 220.111H5.08946V232H1.92753V214.545H4.75708L12.973 226.443H13.1264V214.545H16.2713ZM25.7705 232.256C24.492 232.256 23.3841 231.974 22.4466 231.412C21.5091 230.849 20.7818 230.062 20.2648 229.051C19.7534 228.04 19.4977 226.858 19.4977 225.506C19.4977 224.153 19.7534 222.969 20.2648 221.952C20.7818 220.935 21.5091 220.145 22.4466 219.582C23.3841 219.02 24.492 218.739 25.7705 218.739C27.0489 218.739 28.1568 219.02 29.0943 219.582C30.0318 220.145 30.7563 220.935 31.2676 221.952C31.7847 222.969 32.0432 224.153 32.0432 225.506C32.0432 226.858 31.7847 228.04 31.2676 229.051C30.7563 230.062 30.0318 230.849 29.0943 231.412C28.1568 231.974 27.0489 232.256 25.7705 232.256ZM25.7875 229.784C26.4807 229.784 27.0602 229.594 27.5261 229.213C27.992 228.827 28.3386 228.31 28.5659 227.662C28.7989 227.014 28.9153 226.293 28.9153 225.497C28.9153 224.696 28.7989 223.972 28.5659 223.324C28.3386 222.67 27.992 222.151 27.5261 221.764C27.0602 221.378 26.4807 221.185 25.7875 221.185C25.0773 221.185 24.4864 221.378 24.0148 221.764C23.5489 222.151 23.1994 222.67 22.9665 223.324C22.7392 223.972 22.6256 224.696 22.6256 225.497C22.6256 226.293 22.7392 227.014 22.9665 227.662C23.1994 228.31 23.5489 228.827 24.0148 229.213C24.4864 229.594 25.0773 229.784 25.7875 229.784ZM56.6516 220.435H53.4641C53.3732 219.912 53.2056 219.449 52.9613 219.045C52.717 218.636 52.413 218.29 52.0493 218.006C51.6857 217.722 51.2709 217.509 50.805 217.366C50.3448 217.219 49.8476 217.145 49.3136 217.145C48.3647 217.145 47.5238 217.384 46.7908 217.861C46.0579 218.332 45.484 219.026 45.0692 219.94C44.6545 220.849 44.4471 221.96 44.4471 223.273C44.4471 224.608 44.6545 225.733 45.0692 226.648C45.4897 227.557 46.0636 228.244 46.7908 228.71C47.5238 229.17 48.3618 229.401 49.305 229.401C49.8278 229.401 50.3164 229.332 50.7709 229.196C51.2312 229.054 51.6431 228.847 52.0067 228.574C52.3761 228.301 52.6857 227.966 52.9357 227.568C53.1914 227.17 53.3675 226.716 53.4641 226.205L56.6516 226.222C56.5323 227.051 56.2738 227.83 55.8761 228.557C55.484 229.284 54.9698 229.926 54.3334 230.483C53.6971 231.034 52.9528 231.466 52.1005 231.778C51.2482 232.085 50.3022 232.239 49.2624 232.239C47.7283 232.239 46.359 231.884 45.1545 231.173C43.9499 230.463 43.0011 229.438 42.3079 228.097C41.6147 226.756 41.2681 225.148 41.2681 223.273C41.2681 221.392 41.6175 219.784 42.3164 218.449C43.0153 217.108 43.967 216.082 45.1715 215.372C46.3761 214.662 47.7397 214.307 49.2624 214.307C50.234 214.307 51.1374 214.443 51.9726 214.716C52.8079 214.989 53.5522 215.389 54.2056 215.918C54.859 216.44 55.3959 217.082 55.8164 217.844C56.2425 218.599 56.5209 219.463 56.6516 220.435ZM62.9761 224.33V232H59.8909V214.545H62.9079V221.134H63.0613C63.3681 220.395 63.8426 219.812 64.4846 219.386C65.1323 218.955 65.9562 218.739 66.9562 218.739C67.8653 218.739 68.6579 218.929 69.334 219.31C70.0102 219.69 70.5329 220.247 70.9022 220.98C71.2772 221.713 71.4647 222.608 71.4647 223.665V232H68.3795V224.142C68.3795 223.261 68.1522 222.577 67.6977 222.088C67.2488 221.594 66.6181 221.347 65.8056 221.347C65.2602 221.347 64.7715 221.466 64.3397 221.705C63.9136 221.937 63.5784 222.276 63.334 222.719C63.0954 223.162 62.9761 223.699 62.9761 224.33ZM78.8567 232.264C78.0271 232.264 77.2799 232.116 76.6152 231.821C75.9561 231.52 75.4334 231.077 75.047 230.491C74.6663 229.906 74.476 229.185 74.476 228.327C74.476 227.588 74.6123 226.977 74.8851 226.494C75.1578 226.011 75.5299 225.625 76.0015 225.335C76.4731 225.045 77.0044 224.827 77.5953 224.679C78.1919 224.526 78.8084 224.415 79.4447 224.347C80.2118 224.267 80.8339 224.196 81.3112 224.134C81.7885 224.065 82.1351 223.963 82.351 223.827C82.5726 223.685 82.6834 223.466 82.6834 223.17V223.119C82.6834 222.477 82.493 221.98 82.1123 221.628C81.7317 221.276 81.1834 221.099 80.4674 221.099C79.7118 221.099 79.1123 221.264 78.6692 221.594C78.2317 221.923 77.9362 222.312 77.7828 222.761L74.9021 222.352C75.1294 221.557 75.5044 220.892 76.0271 220.358C76.5498 219.818 77.189 219.415 77.9447 219.148C78.7004 218.875 79.5356 218.739 80.4504 218.739C81.0811 218.739 81.7089 218.812 82.3339 218.96C82.9589 219.108 83.5299 219.352 84.047 219.693C84.564 220.028 84.9788 220.486 85.2913 221.065C85.6095 221.645 85.7686 222.369 85.7686 223.239V232H82.8027V230.202H82.7004C82.5129 230.565 82.2487 230.906 81.9078 231.224C81.5726 231.537 81.1493 231.79 80.6379 231.983C80.1322 232.17 79.5385 232.264 78.8567 232.264ZM79.6578 229.997C80.2771 229.997 80.814 229.875 81.2686 229.631C81.7231 229.381 82.0726 229.051 82.3169 228.642C82.5669 228.233 82.6919 227.787 82.6919 227.304V225.761C82.5953 225.841 82.4305 225.915 82.1976 225.983C81.9703 226.051 81.7146 226.111 81.4305 226.162C81.1464 226.213 80.8652 226.259 80.5868 226.298C80.3084 226.338 80.0669 226.372 79.8623 226.401C79.4021 226.463 78.9902 226.565 78.6265 226.707C78.2629 226.849 77.976 227.048 77.7657 227.304C77.5555 227.554 77.4504 227.878 77.4504 228.276C77.4504 228.844 77.6578 229.273 78.0726 229.562C78.4873 229.852 79.0157 229.997 79.6578 229.997ZM95.8878 218.909V221.295H88.3622V218.909H95.8878ZM90.2202 215.773H93.3054V228.062C93.3054 228.477 93.3679 228.795 93.4929 229.017C93.6236 229.233 93.794 229.381 94.0043 229.46C94.2145 229.54 94.4474 229.58 94.7031 229.58C94.8963 229.58 95.0724 229.565 95.2315 229.537C95.3963 229.509 95.5213 229.483 95.6065 229.46L96.1264 231.872C95.9616 231.929 95.7259 231.991 95.419 232.06C95.1179 232.128 94.7486 232.168 94.3111 232.179C93.5384 232.202 92.8423 232.085 92.223 231.83C91.6037 231.568 91.1122 231.165 90.7486 230.619C90.3906 230.074 90.2145 229.392 90.2202 228.574V215.773ZM109.107 222.369L106.295 222.676C106.215 222.392 106.076 222.125 105.877 221.875C105.684 221.625 105.422 221.423 105.093 221.27C104.763 221.116 104.36 221.04 103.883 221.04C103.241 221.04 102.701 221.179 102.263 221.457C101.832 221.736 101.618 222.097 101.624 222.54C101.618 222.92 101.758 223.23 102.042 223.469C102.332 223.707 102.809 223.903 103.474 224.057L105.707 224.534C106.945 224.801 107.866 225.224 108.468 225.804C109.076 226.384 109.383 227.142 109.388 228.08C109.383 228.903 109.141 229.631 108.664 230.261C108.192 230.886 107.536 231.375 106.695 231.727C105.854 232.08 104.888 232.256 103.797 232.256C102.195 232.256 100.905 231.92 99.9282 231.25C98.9509 230.574 98.3685 229.634 98.181 228.429L101.19 228.139C101.326 228.73 101.616 229.176 102.059 229.477C102.502 229.778 103.079 229.929 103.789 229.929C104.522 229.929 105.11 229.778 105.553 229.477C106.002 229.176 106.226 228.804 106.226 228.361C106.226 227.986 106.082 227.676 105.792 227.432C105.508 227.187 105.065 227 104.462 226.869L102.229 226.401C100.974 226.139 100.045 225.699 99.4424 225.08C98.8401 224.455 98.5418 223.665 98.5475 222.71C98.5418 221.903 98.7605 221.205 99.2037 220.614C99.6526 220.017 100.275 219.557 101.07 219.233C101.871 218.903 102.795 218.739 103.84 218.739C105.374 218.739 106.582 219.065 107.462 219.719C108.349 220.372 108.897 221.256 109.107 222.369ZM112.549 232V214.545H123.731V217.196H115.711V221.935H122.964V224.585H115.711V232H112.549ZM131.704 232.256C130.426 232.256 129.318 231.974 128.38 231.412C127.443 230.849 126.716 230.062 126.199 229.051C125.687 228.04 125.431 226.858 125.431 225.506C125.431 224.153 125.687 222.969 126.199 221.952C126.716 220.935 127.443 220.145 128.38 219.582C129.318 219.02 130.426 218.739 131.704 218.739C132.983 218.739 134.091 219.02 135.028 219.582C135.966 220.145 136.69 220.935 137.201 221.952C137.718 222.969 137.977 224.153 137.977 225.506C137.977 226.858 137.718 228.04 137.201 229.051C136.69 230.062 135.966 230.849 135.028 231.412C134.091 231.974 132.983 232.256 131.704 232.256ZM131.721 229.784C132.414 229.784 132.994 229.594 133.46 229.213C133.926 228.827 134.272 228.31 134.5 227.662C134.733 227.014 134.849 226.293 134.849 225.497C134.849 224.696 134.733 223.972 134.5 223.324C134.272 222.67 133.926 222.151 133.46 221.764C132.994 221.378 132.414 221.185 131.721 221.185C131.011 221.185 130.42 221.378 129.949 221.764C129.483 222.151 129.133 222.67 128.9 223.324C128.673 223.972 128.559 224.696 128.559 225.497C128.559 226.293 128.673 227.014 128.9 227.662C129.133 228.31 129.483 228.827 129.949 229.213C130.42 229.594 131.011 229.784 131.721 229.784ZM149.419 226.494V218.909H152.505V232H149.513V229.673H149.377C149.081 230.406 148.595 231.006 147.919 231.472C147.249 231.937 146.422 232.17 145.439 232.17C144.581 232.17 143.823 231.98 143.164 231.599C142.51 231.213 141.999 230.653 141.63 229.92C141.26 229.182 141.076 228.29 141.076 227.244V218.909H144.161V226.767C144.161 227.597 144.388 228.256 144.843 228.744C145.297 229.233 145.894 229.477 146.632 229.477C147.087 229.477 147.527 229.366 147.953 229.145C148.38 228.923 148.729 228.594 149.002 228.156C149.28 227.713 149.419 227.159 149.419 226.494ZM159.242 224.33V232H156.157V218.909H159.106V221.134H159.259C159.561 220.401 160.041 219.818 160.7 219.386C161.364 218.955 162.186 218.739 163.163 218.739C164.066 218.739 164.853 218.932 165.524 219.318C166.2 219.705 166.722 220.264 167.092 220.997C167.467 221.73 167.651 222.619 167.646 223.665V232H164.561V224.142C164.561 223.267 164.333 222.582 163.879 222.088C163.43 221.594 162.808 221.347 162.012 221.347C161.472 221.347 160.992 221.466 160.572 221.705C160.157 221.937 159.83 222.276 159.592 222.719C159.359 223.162 159.242 223.699 159.242 224.33ZM176.12 232.23C175.092 232.23 174.171 231.966 173.359 231.438C172.546 230.909 171.904 230.142 171.433 229.136C170.961 228.131 170.725 226.909 170.725 225.472C170.725 224.017 170.964 222.79 171.441 221.79C171.924 220.784 172.575 220.026 173.393 219.514C174.211 218.997 175.123 218.739 176.129 218.739C176.896 218.739 177.526 218.869 178.021 219.131C178.515 219.386 178.907 219.696 179.197 220.06C179.487 220.418 179.711 220.756 179.87 221.074H179.998V214.545H183.092V232H180.058V229.938H179.87C179.711 230.256 179.481 230.594 179.18 230.952C178.879 231.304 178.481 231.605 177.987 231.855C177.492 232.105 176.87 232.23 176.12 232.23ZM176.981 229.699C177.634 229.699 178.191 229.523 178.651 229.17C179.112 228.812 179.461 228.315 179.7 227.679C179.938 227.043 180.058 226.301 180.058 225.455C180.058 224.608 179.938 223.872 179.7 223.247C179.467 222.622 179.12 222.136 178.66 221.79C178.205 221.443 177.646 221.27 176.981 221.27C176.293 221.27 175.719 221.449 175.259 221.807C174.799 222.165 174.452 222.659 174.219 223.29C173.987 223.92 173.87 224.642 173.87 225.455C173.87 226.273 173.987 227.003 174.219 227.645C174.458 228.281 174.808 228.784 175.268 229.153C175.734 229.517 176.305 229.699 176.981 229.699Z" fill="#232323"/>
</svg>
