<svg width="36" height="35" viewBox="0 0 36 35" fill="none" xmlns="http://www.w3.org/2000/svg">
<rect x="0.5" y="0.5" width="35" height="34" rx="17" fill="white"/>
<rect x="0.5" y="0.5" width="35" height="34" rx="17" stroke="#D8D8D8"/>
<path d="M18 27.7863C18.682 27.7863 19.336 27.5154 19.8183 27.0331C20.3005 26.5509 20.5714 25.8969 20.5714 25.2149H15.4286C15.4286 25.8969 15.6995 26.5509 16.1817 27.0331C16.664 27.5154 17.318 27.7863 18 27.7863ZM18 9.68087L16.9753 9.88787C15.8127 10.1242 14.7676 10.7553 14.0171 11.6741C13.2666 12.5928 12.8568 13.7428 12.8571 14.9292C12.8571 15.7366 12.6849 17.7539 12.267 19.7403C12.0613 20.7264 11.7836 21.7537 11.4146 22.6434H24.5854C24.2164 21.7537 23.94 20.7277 23.733 19.7403C23.3151 17.7539 23.1429 15.7366 23.1429 14.9292C23.1429 13.743 22.733 12.5933 21.9825 11.6748C21.232 10.7563 20.1871 10.1255 19.0247 9.88916L18 9.68087ZM25.9971 22.6434C26.2839 23.2182 26.6156 23.6733 27 23.9292H9C9.38443 23.6733 9.71614 23.2182 10.0029 22.6434C11.16 20.3292 11.5714 16.0606 11.5714 14.9292C11.5714 11.8177 13.7829 9.22058 16.7207 8.62787C16.7028 8.4491 16.7225 8.26855 16.7786 8.09786C16.8347 7.92718 16.926 7.77016 17.0465 7.63692C17.1671 7.50368 17.3142 7.39718 17.4784 7.32429C17.6427 7.2514 17.8203 7.21375 18 7.21375C18.1797 7.21375 18.3573 7.2514 18.5216 7.32429C18.6858 7.39718 18.8329 7.50368 18.9535 7.63692C19.074 7.77016 19.1653 7.92718 19.2214 8.09786C19.2775 8.26855 19.2972 8.4491 19.2793 8.62787C20.7327 8.92301 22.0394 9.71162 22.9779 10.86C23.9164 12.0085 24.4289 13.4461 24.4286 14.9292C24.4286 16.0606 24.84 20.3292 25.9971 22.6434Z" fill="#798889"/>
</svg>
