<svg width="18" height="17" viewBox="0 0 18 17" fill="none" xmlns="http://www.w3.org/2000/svg">
<path d="M1.80658 16.403V5.20186L0 1.22903L0.941311 0.79126L2.92053 5.15048H15.0795L17.0587 0.79126L18 1.23006L16.1934 5.20186V16.403H1.80658ZM6.94474 9.72344H11.0553C11.2012 9.72344 11.3231 9.67411 11.4211 9.57546C11.5191 9.47681 11.5684 9.35452 11.5691 9.20859C11.5698 9.06267 11.5204 8.94072 11.4211 8.84276C11.3218 8.74479 11.1998 8.69581 11.0553 8.69581H6.94474C6.79881 8.69581 6.67687 8.74513 6.5789 8.84378C6.48093 8.94244 6.43161 9.06473 6.43092 9.21065C6.43024 9.35657 6.47956 9.47852 6.5789 9.57649C6.67824 9.67445 6.80018 9.72344 6.94474 9.72344ZM2.83421 15.3754H15.1658V6.17811H2.83421V15.3754Z" fill="#232323"/>
</svg>
