<svg width="20" height="18" viewBox="0 0 20 18" fill="none" xmlns="http://www.w3.org/2000/svg">
<path d="M19 8.14707V3.29967C19 2.58777 19 2.23227 18.8254 1.86507C18.6981 1.62167 18.5255 1.4048 18.3169 1.22607C17.9983 0.97407 17.7319 0.91377 17.2 0.79137C16.372 0.60237 15.4594 0.49707 14.5 0.49707C12.7747 0.49707 11.1988 0.83727 10 1.39707C8.8012 1.95687 7.2253 2.29707 5.5 2.29707C4.5406 2.29707 3.628 2.19177 2.8 2.00277C1.936 1.80477 1 2.41317 1 3.29967V12.9945C1 13.7064 1 14.0628 1.1746 14.4291C1.2736 14.6388 1.5013 14.9241 1.6831 15.0681C2.0017 15.3201 2.2681 15.3804 2.8 15.5028C3.628 15.6918 4.5406 15.7971 5.5 15.7971C6.8221 15.7971 8.056 15.5973 9.1 15.2526M11.8 14.8971C11.8 14.8971 12.7 14.8971 13.6 16.6971C13.6 16.6971 16.4593 12.1971 19 11.2971" stroke="#232323" stroke-linecap="round" stroke-linejoin="round"/>
<path d="M4.15015 9.04697V9.05507M15.8501 7.23977V7.24877M12.2501 8.14697C12.2501 8.74371 12.0131 9.31601 11.5911 9.73796C11.1692 10.1599 10.5969 10.397 10.0001 10.397C9.40341 10.397 8.83111 10.1599 8.40916 9.73796C7.9872 9.31601 7.75015 8.74371 7.75015 8.14697C7.75015 7.55024 7.9872 6.97794 8.40916 6.55598C8.83111 6.13403 9.40341 5.89697 10.0001 5.89697C10.5969 5.89697 11.1692 6.13403 11.5911 6.55598C12.0131 6.97794 12.2501 7.55024 12.2501 8.14697Z" stroke="#232323" stroke-linecap="round" stroke-linejoin="round"/>
</svg>
