<svg width="6" height="7" viewBox="0 0 6 7" fill="none" xmlns="http://www.w3.org/2000/svg">
<path d="M3 0.5C2.40666 0.5 1.82664 0.675947 1.33329 1.00559C0.839943 1.33524 0.455425 1.80377 0.228363 2.35195C0.0012998 2.90013 -0.0581101 3.50333 0.0576455 4.08527C0.173401 4.66721 0.459123 5.20176 0.878681 5.62132C1.29824 6.04088 1.83279 6.3266 2.41473 6.44235C2.99667 6.55811 3.59987 6.4987 4.14805 6.27164C4.69623 6.04457 5.16476 5.66006 5.49441 5.16671C5.82405 4.67336 6 4.09334 6 3.5C5.99907 2.70464 5.6827 1.94212 5.12029 1.37971C4.55788 0.817305 3.79536 0.500934 3 0.5ZM3 6.14706C2.47646 6.14706 1.96468 5.99181 1.52937 5.70095C1.09407 5.41009 0.754787 4.99667 0.554438 4.51298C0.354088 4.0293 0.301668 3.49706 0.403805 2.98358C0.505942 2.4701 0.75805 1.99844 1.12825 1.62825C1.49845 1.25805 1.97011 1.00594 2.48359 0.903804C2.99706 0.801666 3.5293 0.854087 4.01299 1.05444C4.49667 1.25479 4.91009 1.59407 5.20095 2.02937C5.49181 2.46468 5.64706 2.97646 5.64706 3.5C5.64628 4.2018 5.36714 4.87464 4.87089 5.37089C4.37464 5.86714 3.70181 6.14628 3 6.14706ZM4.82353 3.5C4.82353 3.5468 4.80494 3.59169 4.77184 3.62478C4.73875 3.65788 4.69386 3.67647 4.64706 3.67647H3C2.9532 3.67647 2.90831 3.65788 2.87522 3.62478C2.84212 3.59169 2.82353 3.5468 2.82353 3.5V1.85294C2.82353 1.80614 2.84212 1.76125 2.87522 1.72816C2.90831 1.69506 2.9532 1.67647 3 1.67647C3.0468 1.67647 3.09169 1.69506 3.12478 1.72816C3.15788 1.76125 3.17647 1.80614 3.17647 1.85294V3.32353H4.64706C4.69386 3.32353 4.73875 3.34212 4.77184 3.37522C4.80494 3.40831 4.82353 3.4532 4.82353 3.5Z" fill="white"/>
</svg>
