<svg width="18" height="18" viewBox="0 0 18 18" fill="none" xmlns="http://www.w3.org/2000/svg">
<path d="M1.1251 15.7275C1.1251 15.2803 1.46073 15.1403 1.5949 15.0781L6.53567 12.7465C6.88981 12.584 7.13425 12.2487 7.18178 11.8619C7.2296 11.4751 7.07349 11.0912 6.76942 10.8473C5.60068 9.90894 5.05611 7.84656 5.05611 6.74784V3.93668C5.05611 2.76119 7.10246 1.12636 8.99635 1.12636C10.9068 1.12636 12.9329 2.73559 12.9329 3.93668V6.74812C12.9329 7.83022 12.4829 9.90048 11.2759 10.8506C11.1245 10.9698 11.0063 11.1258 10.9325 11.3038C10.8587 11.4817 10.8319 11.6756 10.8545 11.8669C10.9007 12.2565 11.1462 12.5932 11.5023 12.7569L13.1886 13.5569L13.4665 12.434L11.9721 11.7347C13.5307 10.508 14.0581 8.09855 14.0581 6.7481V3.93664C14.0581 2.07454 11.4804 0.0012207 8.99635 0.0012207C6.51204 0.0012207 3.93094 2.07457 3.93094 3.93664V6.74809C3.93094 7.97646 4.49154 10.4619 6.06506 11.7249L1.1243 14.0564C1.1243 14.0564 0 14.5574 0 15.181V16.8693C0 17.4906 0.5035 17.9939 1.12426 17.9939H13.4994V16.8687L1.12512 16.8693L1.1251 15.7275ZM17.4374 14.6233H15.7497V12.9356C15.7497 12.6247 15.4977 12.373 15.1872 12.373C14.8766 12.373 14.6246 12.6247 14.6246 12.9356V14.6233H12.9369C12.6263 14.6233 12.3743 14.875 12.3743 15.1858C12.3743 15.4964 12.6263 15.7484 12.9369 15.7484H14.6246V17.4361C14.6246 17.7467 14.8766 17.9987 15.1872 17.9987C15.4977 17.9987 15.7497 17.7467 15.7497 17.4361V15.7484H17.4374C17.748 15.7484 18 15.4964 18 15.1858C18 14.875 17.7482 14.6233 17.4374 14.6233Z" fill="white"/>
</svg>
