<svg width="60" height="60" viewBox="0 0 60 60" fill="none" xmlns="http://www.w3.org/2000/svg">
<rect x="0.5" y="0.5" width="59" height="59" rx="29.5" fill="white"/>
<rect x="0.5" y="0.5" width="59" height="59" rx="29.5" stroke="#E9E9E9"/>
<path d="M39.2352 42H39.0782C20.9398 40.9569 18.3644 25.6523 18.0044 20.9815C17.9754 20.6184 18.0183 20.2531 18.1307 19.9065C18.2432 19.56 18.4229 19.239 18.6595 18.9621C18.8962 18.6851 19.1852 18.4576 19.5099 18.2925C19.8347 18.1274 20.1889 18.028 20.5521 18H25.6382C26.008 17.9996 26.3693 18.1103 26.6754 18.3177C26.9816 18.5251 27.2184 18.8196 27.3552 19.1631L28.7582 22.6154C28.8933 22.951 28.9269 23.3188 28.8547 23.6733C28.7824 24.0278 28.6077 24.3532 28.3521 24.6092L26.3859 26.5938C26.6931 28.3392 27.5289 29.948 28.7803 31.2027C30.0317 32.4575 31.6384 33.2975 33.3829 33.6092L35.3859 31.6246C35.6458 31.3718 35.9743 31.2012 36.3305 31.1339C36.6867 31.0665 37.0549 31.1056 37.389 31.2462L40.869 32.64C41.2073 32.7811 41.496 33.0198 41.6982 33.3255C41.9004 33.6313 42.007 33.9904 42.0044 34.3569V39.2308C42.0044 39.9652 41.7126 40.6696 41.1933 41.1889C40.674 41.7082 39.9696 42 39.2352 42ZM20.7736 19.8462C20.5288 19.8462 20.294 19.9434 20.1209 20.1165C19.9478 20.2896 19.8506 20.5244 19.8506 20.7692V20.8431C20.2752 26.3077 22.9982 39.2308 39.1798 40.1538C39.3011 40.1613 39.4226 40.1448 39.5375 40.1052C39.6523 40.0656 39.7583 40.0038 39.8492 39.9232C39.9401 39.8425 40.0142 39.7448 40.0672 39.6355C40.1203 39.5262 40.1512 39.4074 40.1582 39.2862V34.3569L36.6782 32.9631L34.029 35.5938L33.5859 35.5385C25.5552 34.5323 24.4659 26.5015 24.4659 26.4185L24.4106 25.9754L27.0321 23.3262L25.6475 19.8462H20.7736Z" fill="black"/>
</svg>
