<svg width="14" height="14" viewBox="0 0 14 14" fill="none" xmlns="http://www.w3.org/2000/svg">
<path d="M4.24128 7.54619e-07H0.471254C0.34627 7.54619e-07 0.226405 0.0496505 0.138028 0.138028C0.0496505 0.226405 7.54619e-07 0.34627 7.54619e-07 0.471254V4.24128C-0.000166225 4.33461 0.0273818 4.42589 0.0791523 4.50354C0.130923 4.58119 0.204584 4.64172 0.290799 4.67746C0.377013 4.7132 0.471897 4.72253 0.563423 4.70428C0.654948 4.68602 0.738993 4.64101 0.804902 4.57493L2.35627 3.02262L13.3327 14L14 13.3327L3.02262 2.35627L4.57493 0.804902C4.64101 0.738993 4.68602 0.654948 4.70428 0.563423C4.72253 0.471897 4.7132 0.377013 4.67746 0.290799C4.64172 0.204584 4.58119 0.130923 4.50354 0.0791523C4.42589 0.0273818 4.33461 -0.000166225 4.24128 7.54619e-07Z" fill="#232323"/>
</svg>
