<svg width="24" height="25" viewBox="0 0 24 25" fill="none" xmlns="http://www.w3.org/2000/svg">
<path d="M3.25012 19.9752C3.25012 19.4782 3.62303 19.3226 3.77211 19.2536L9.26186 16.6629C9.65534 16.4823 9.92694 16.1097 9.97976 15.68C10.0329 15.2503 9.85943 14.8236 9.52158 14.5527C8.22298 13.51 7.6179 11.2185 7.6179 9.99771V6.87419C7.6179 5.56809 9.89162 3.75162 11.9959 3.75162C14.1187 3.75162 16.3699 5.53965 16.3699 6.87419V9.99802C16.3699 11.2004 15.8699 13.5006 14.5288 14.5564C14.3606 14.6888 14.2292 14.8621 14.1472 15.0598C14.0652 15.2576 14.0354 15.473 14.0606 15.6856C14.1118 16.1185 14.3847 16.4926 14.7804 16.6745L16.654 17.5633L16.9628 16.3157L15.3023 15.5387C17.0341 14.1757 17.6201 11.4985 17.6201 9.998V6.87416C17.6201 4.80515 14.756 2.50146 11.9959 2.50146C9.2356 2.50146 6.36771 4.80519 6.36771 6.87416V9.99798C6.36771 11.3628 6.9906 14.1244 8.73896 15.5277L3.24922 18.1184C3.24922 18.1184 2 18.675 2 19.3679V21.2437C2 21.9341 2.55944 22.4933 3.24918 22.4933H16.9993V21.2431L3.25014 21.2437L3.25012 19.9752ZM21.3749 18.7482H19.4997V16.873C19.4997 16.5276 19.2197 16.2479 18.8746 16.2479C18.5296 16.2479 18.2495 16.5276 18.2495 16.873V18.7482H16.3743C16.0293 18.7482 15.7492 19.0279 15.7492 19.3733C15.7492 19.7183 16.0293 19.9983 16.3743 19.9983H18.2495V21.8736C18.2495 22.2186 18.5296 22.4987 18.8746 22.4987C19.2197 22.4987 19.4997 22.2186 19.4997 21.8736V19.9983H21.3749C21.72 19.9983 22 19.7183 22 19.3733C22 19.0279 21.7203 18.7482 21.3749 18.7482Z" fill="#798889"/>
</svg>
