<svg width="42" height="34" viewBox="0 0 42 34" fill="none" xmlns="http://www.w3.org/2000/svg">
<path d="M31 33.0001C32.0609 33.0001 33.0783 32.5787 33.8284 31.8285C34.5786 31.0784 35 30.061 35 29.0002C35 27.9393 34.5786 26.9219 33.8284 26.1718C33.0783 25.4217 32.0609 25.0002 31 25.0002C29.9391 25.0002 28.9217 25.4217 28.1716 26.1718C27.4214 26.9219 27 27.9393 27 29.0002C27 30.061 27.4214 31.0784 28.1716 31.8285C28.9217 32.5787 29.9391 33.0001 31 33.0001ZM11 33.0001C12.0609 33.0001 13.0783 32.5787 13.8284 31.8285C14.5786 31.0784 15 30.061 15 29.0002C15 27.9393 14.5786 26.9219 13.8284 26.1718C13.0783 25.4217 12.0609 25.0002 11 25.0002C9.93913 25.0002 8.92172 25.4217 8.17157 26.1718C7.42143 26.9219 7 27.9393 7 29.0002C7 30.061 7.42143 31.0784 8.17157 31.8285C8.92172 32.5787 9.93913 33.0001 11 33.0001Z" stroke="#232323" stroke-width="1.5" stroke-linecap="round" stroke-linejoin="round"/>
<path d="M35 15H41M41 15V18.9999C41 23.7138 41 26.0697 39.536 27.5357C38.562 28.5097 37.194 28.8357 35 28.9437M41 15L38.448 10.2601C37.068 7.69611 36.378 6.41413 35.192 5.70815C34.008 5.00016 32.554 5.00016 29.642 5.00016H26M7 28.9437C4.806 28.8357 3.44 28.5097 2.464 27.5357C1 26.0697 1 23.7138 1 18.9999V11C1 6.28614 1 3.92818 2.464 2.46421C3.928 1.00024 6.286 1.00024 11 1.00024H17.6C19.834 1.00024 20.95 1.00024 21.854 1.29424C22.7545 1.58684 23.5729 2.08837 24.2424 2.75785C24.9118 3.42732 25.4134 4.24573 25.706 5.14616C26 6.05014 26 7.16612 26 9.40007C26 11.84 26 13.062 25.332 13.888C25.2 14.0506 25.052 14.1986 24.888 14.332C24.062 15 22.842 15 20.4 15H13M27 28.9997H15" stroke="#232323" stroke-width="1.5" stroke-linecap="round" stroke-linejoin="round"/>
<path d="M16.9995 19.0001C16.9995 19.0001 15.6555 17.8881 14.4735 16.8321C13.6395 16.1601 12.9995 15.5862 12.9995 15.0102C12.9995 14.5002 13.4995 14.0262 14.3115 13.2822C15.4635 12.3242 16.9995 11.0002 16.9995 11.0002" stroke="#232323" stroke-width="1.5" stroke-linecap="round" stroke-linejoin="round"/>
</svg>
