<svg width="20" height="20" viewBox="0 0 20 20" fill="none" xmlns="http://www.w3.org/2000/svg">
<path d="M18.1931 19.0076C18.6847 19.4992 19.4434 18.7405 18.9518 18.2596L14.9443 14.2413C16.3504 12.6861 17.1276 10.6633 17.1244 8.56666C17.1244 3.87517 13.3092 0.0599976 8.61775 0.0599976C3.92626 0.0599976 0.111084 3.87517 0.111084 8.56666C0.111084 13.2582 3.92626 17.0733 8.61775 17.0733C10.7337 17.0733 12.6894 16.2932 14.1855 15.0001L18.1931 19.0076ZM1.17869 8.56666C1.17869 4.46294 4.52365 1.12867 8.61668 1.12867C12.7204 1.12867 16.0547 4.46294 16.0547 8.56666C16.0547 12.6704 12.7204 16.0046 8.61668 16.0046C4.52365 16.0046 1.17869 12.6704 1.17869 8.56666Z" fill="#798889"/>
</svg>
