<svg width="20" height="21" viewBox="0 0 20 21" fill="none" xmlns="http://www.w3.org/2000/svg">
<path d="M4.81977 4.80167C5.10458 4.90193 5.40771 4.93937 5.70836 4.91144C6.00901 4.8835 6.30005 4.79085 6.56152 4.63983C6.82299 4.48882 7.04868 4.28302 7.22312 4.03656C7.39756 3.7901 7.5166 3.50882 7.57209 3.21202L7.90698 1.41202C9.28399 1.09834 10.7139 1.09834 12.0909 1.41202L12.4279 3.21202C12.4834 3.50882 12.6024 3.7901 12.7769 4.03656C12.9513 4.28302 13.177 4.48882 13.4385 4.63983C13.6999 4.79085 13.991 4.8835 14.2916 4.91144C14.5923 4.93937 14.8954 4.90193 15.1802 4.80167L16.9059 4.1947C17.8665 5.22946 18.5822 6.46695 19 7.81563L17.6081 9.00865C17.3789 9.20514 17.1949 9.4489 17.0687 9.7232C16.9426 9.99751 16.8773 10.2959 16.8773 10.5978C16.8773 10.8997 16.9426 11.1981 17.0687 11.4724C17.1949 11.7467 17.3789 11.9904 17.6081 12.1869L19 13.3789C18.5822 14.7276 17.8665 15.9651 16.9059 16.9998L15.1792 16.3928C14.8944 16.2926 14.5912 16.2551 14.2906 16.2831C13.9899 16.311 13.6989 16.4037 13.4374 16.5547C13.176 16.7057 12.9503 16.9115 12.7758 17.1579C12.6014 17.4044 12.4823 17.6857 12.4269 17.9825L12.093 19.7825C10.716 20.0962 9.28608 20.0962 7.90907 19.7825L7.57209 17.9825C7.5166 17.6857 7.39756 17.4044 7.22312 17.1579C7.04868 16.9115 6.82299 16.7057 6.56152 16.5547C6.30005 16.4037 6.00901 16.311 5.70836 16.2831C5.40771 16.2551 5.10458 16.2926 4.81977 16.3928L3.09407 16.9998C2.13347 15.9651 1.4178 14.7276 1 13.3789L2.39186 12.1859C2.62092 11.9894 2.80477 11.7457 2.93082 11.4715C3.05687 11.1973 3.12214 10.899 3.12214 10.5973C3.12214 10.2955 3.05687 9.99725 2.93082 9.72305C2.80477 9.44884 2.62092 9.20514 2.39186 9.00865L1 7.81563C1.41749 6.46704 2.1328 5.22956 3.09302 4.1947L4.81977 4.80167ZM10 7.45772C10.8327 7.45772 11.6312 7.78849 12.22 8.37727C12.8088 8.96604 13.1395 9.7646 13.1395 10.5973C13.1395 11.4299 12.8088 12.2285 12.22 12.8172C11.6312 13.406 10.8327 13.7368 10 13.7368C9.16734 13.7368 8.36879 13.406 7.78001 12.8172C7.19124 12.2285 6.86046 11.4299 6.86046 10.5973C6.86046 9.7646 7.19124 8.96604 7.78001 8.37727C8.36879 7.78849 9.16734 7.45772 10 7.45772Z" stroke="#232323" stroke-linecap="round" stroke-linejoin="round"/>
</svg>
