<svg width="24" height="23" viewBox="0 0 24 23" fill="none" xmlns="http://www.w3.org/2000/svg">
<path d="M0.837209 1.45391V0.616699C0.615168 0.616699 0.40222 0.704905 0.245213 0.861912C0.0882058 1.01892 0 1.23187 0 1.45391H0.837209ZM13.1163 1.45391H13.9535C13.9535 1.23187 13.8653 1.01892 13.7083 0.861912C13.5513 0.704905 13.3383 0.616699 13.1163 0.616699V1.45391ZM13.1163 8.15158V7.31437C12.8942 7.31437 12.6813 7.40258 12.5243 7.55959C12.3673 7.71659 12.2791 7.92954 12.2791 8.15158H13.1163ZM0.837209 2.29112H13.1163V0.616699H0.837209V2.29112ZM12.2791 1.45391V19.3144H13.9535V1.45391H12.2791ZM1.67442 17.0818V1.45391H0V17.0818H1.67442ZM13.1163 8.98879H18.6977V7.31437H13.1163V8.98879ZM22.3256 12.6167V17.0818H24V12.6167H22.3256ZM13.9535 19.3144V8.15158H12.2791V19.3144H13.9535ZM19.6845 20.3012C19.5549 20.4308 19.4011 20.5336 19.2317 20.6037C19.0624 20.6739 18.8809 20.71 18.6977 20.71C18.5144 20.71 18.3329 20.6739 18.1636 20.6037C17.9943 20.5336 17.8405 20.4308 17.7109 20.3012L16.5276 21.4844C17.1033 22.0601 17.8841 22.3835 18.6982 22.3835C19.5124 22.3835 20.2931 22.0601 20.8688 21.4844L19.6845 20.3012ZM17.7109 18.3276C17.8405 18.198 17.9943 18.0952 18.1636 18.025C18.3329 17.9549 18.5144 17.9188 18.6977 17.9188C18.8809 17.9188 19.0624 17.9549 19.2317 18.025C19.4011 18.0952 19.5549 18.198 19.6845 18.3276L20.8677 17.1443C20.292 16.5687 19.5112 16.2453 18.6971 16.2453C17.883 16.2453 17.1022 16.5687 16.5265 17.1443L17.7109 18.3276ZM6.28912 20.3012C6.15954 20.4308 6.0057 20.5336 5.83639 20.6037C5.66707 20.6739 5.4856 20.71 5.30233 20.71C5.11906 20.71 4.93758 20.6739 4.76826 20.6037C4.59895 20.5336 4.44511 20.4308 4.31554 20.3012L3.13228 21.4844C3.70797 22.0601 4.48876 22.3835 5.30288 22.3835C6.11701 22.3835 6.8978 22.0601 7.47349 21.4844L6.28912 20.3012ZM4.31554 18.3276C4.44511 18.198 4.59895 18.0952 4.76826 18.025C4.93758 17.9549 5.11906 17.9188 5.30233 17.9188C5.4856 17.9188 5.66707 17.9549 5.83639 18.025C6.0057 18.0952 6.15954 18.198 6.28912 18.3276L7.47237 17.1443C6.89668 16.5687 6.1159 16.2453 5.30177 16.2453C4.48764 16.2453 3.70685 16.5687 3.13116 17.1443L4.31554 18.3276ZM19.6845 18.3276C19.9568 18.6 20.093 18.956 20.093 19.3144H21.7674C21.7674 18.5296 21.4672 17.7427 20.8688 17.1432L19.6845 18.3276ZM20.093 19.3144C20.093 19.6727 19.9568 20.0288 19.6845 20.3012L20.8688 21.4844C21.1544 21.1999 21.3798 20.8616 21.5342 20.4892C21.6886 20.1168 21.7679 19.7175 21.7674 19.3144H20.093ZM16.4651 18.4772H13.1163V20.1516H16.4651V18.4772ZM17.7109 20.3012C17.5808 20.1719 17.4777 20.0182 17.4076 19.8488C17.3375 19.6794 17.3017 19.4977 17.3023 19.3144H15.6279C15.6279 20.0991 15.9282 20.8861 16.5265 21.4855L17.7109 20.3012ZM17.3023 19.3144C17.3023 18.956 17.4385 18.6 17.7109 18.3276L16.5265 17.1443C16.2409 17.4289 16.0155 17.7671 15.8611 18.1395C15.7067 18.5119 15.6275 18.9112 15.6279 19.3144H17.3023ZM4.31554 20.3012C4.18548 20.1719 4.08238 20.0182 4.01225 19.8488C3.94211 19.6794 3.90633 19.4977 3.90698 19.3144H2.23256C2.23256 20.0991 2.53284 20.8861 3.13116 21.4855L4.31554 20.3012ZM3.90698 19.3144C3.90698 18.956 4.04316 18.6 4.31554 18.3276L3.13228 17.1443C2.84669 17.4289 2.62018 17.7671 2.46577 18.1395C2.31137 18.5119 2.23211 18.9112 2.23256 19.3144H3.90698ZM13.1163 18.4772H7.53488V20.1516H13.1163V18.4772ZM6.28912 18.3276C6.56149 18.6 6.69767 18.956 6.69767 19.3144H8.37209C8.37209 18.5296 8.07181 17.7427 7.47349 17.1432L6.28912 18.3276ZM6.69767 19.3144C6.69767 19.6727 6.56149 20.0288 6.28912 20.3012L7.47237 21.4844C7.75796 21.1999 7.98447 20.8616 8.13888 20.4892C8.29329 20.1168 8.37254 19.7175 8.37209 19.3144H6.69767ZM22.3256 17.0818C22.3256 17.852 21.7005 18.4772 20.9302 18.4772V20.1516C21.7444 20.1516 22.5252 19.8282 23.1009 19.2525C23.6766 18.6768 24 17.896 24 17.0818H22.3256ZM18.6977 8.98879C19.6599 8.98879 20.5826 9.37102 21.263 10.0514C21.9434 10.7317 22.3256 11.6545 22.3256 12.6167H24C24 11.2104 23.4414 9.86177 22.447 8.86739C21.4526 7.87301 20.1039 7.31437 18.6977 7.31437V8.98879ZM0 17.0818C0 17.896 0.323421 18.6768 0.899114 19.2525C1.47481 19.8282 2.25561 20.1516 3.06977 20.1516V18.4772C2.29954 18.4772 1.67442 17.852 1.67442 17.0818H0Z" fill="#232323"/>
</svg>
