<svg width="26" height="21" viewBox="0 0 26 21" fill="none" xmlns="http://www.w3.org/2000/svg">
<path d="M18.9999 20.1C19.6364 20.1 20.2468 19.8472 20.6969 19.3971C21.147 18.947 21.3999 18.3366 21.3999 17.7C21.3999 17.0635 21.147 16.4531 20.6969 16.003C20.2468 15.5529 19.6364 15.3 18.9999 15.3C18.3633 15.3 17.7529 15.5529 17.3028 16.003C16.8527 16.4531 16.5999 17.0635 16.5999 17.7C16.5999 18.3366 16.8527 18.947 17.3028 19.3971C17.7529 19.8472 18.3633 20.1 18.9999 20.1ZM6.99985 20.1C7.63637 20.1 8.24682 19.8472 8.69691 19.3971C9.147 18.947 9.39985 18.3366 9.39985 17.7C9.39985 17.0635 9.147 16.4531 8.69691 16.003C8.24682 15.5529 7.63637 15.3 6.99985 15.3C6.36333 15.3 5.75288 15.5529 5.3028 16.003C4.85271 16.4531 4.59985 17.0635 4.59985 17.7C4.59985 18.3366 4.85271 18.947 5.3028 19.3971C5.75288 19.8472 6.36333 20.1 6.99985 20.1Z" stroke="#232323" stroke-width="1.5" stroke-linecap="round" stroke-linejoin="round"/>
<path d="M21.4 9.2999H25M25 9.2999V11.6999C25 14.5283 25 15.9419 24.1216 16.8215C23.5372 17.4059 22.7164 17.6015 21.4 17.6663M25 9.2999L23.4688 6.4559C22.6408 4.9175 22.2268 4.1483 21.5152 3.7247C20.8048 3.2999 19.9324 3.2999 18.1852 3.2999H16M4.6 17.6663C3.2836 17.6015 2.464 17.4059 1.8784 16.8215C1 15.9419 1 14.5283 1 11.6999V6.8999C1 4.0715 1 2.6567 1.8784 1.7783C2.7568 0.899902 4.1716 0.899902 7 0.899902H10.96C12.3004 0.899902 12.97 0.899902 13.5124 1.0763C14.0527 1.25187 14.5437 1.55279 14.9454 1.95449C15.3471 2.35618 15.648 2.84723 15.8236 3.3875C16 3.9299 16 4.5995 16 5.9399C16 7.4039 16 8.1371 15.5992 8.6327C15.52 8.7303 15.4312 8.8191 15.3328 8.8991C14.8372 9.2999 14.1052 9.2999 12.64 9.2999H8.2M16.6 17.6999H9.4" stroke="#232323" stroke-width="1.5" stroke-linecap="round" stroke-linejoin="round"/>
<path d="M10.6 11.6999C10.6 11.6999 9.79355 11.0327 9.08435 10.3991C8.58395 9.9959 8.19995 9.6515 8.19995 9.3059C8.19995 8.9999 8.49995 8.7155 8.98715 8.2691C9.67835 7.6943 10.6 6.8999 10.6 6.8999" stroke="#232323" stroke-width="1.5" stroke-linecap="round" stroke-linejoin="round"/>
</svg>
