<svg width="120" height="120" viewBox="0 0 120 120" fill="none" xmlns="http://www.w3.org/2000/svg">
<rect width="120" height="120" rx="60" fill="#44B27B"/>
<path fill-rule="evenodd" clip-rule="evenodd" d="M10 60C10 46.7392 15.2678 34.0215 24.6447 24.6447C34.0215 15.2678 46.7392 10 60 10C73.2608 10 85.9785 15.2678 95.3553 24.6447C104.732 34.0215 110 46.7392 110 60C110 73.2608 104.732 85.9785 95.3553 95.3553C85.9785 104.732 73.2608 110 60 110C46.7392 110 34.0215 104.732 24.6447 95.3553C15.2678 85.9785 10 73.2608 10 60ZM57.1467 81.4L85.9333 45.4133L80.7333 41.2533L56.1867 71.9267L38.8 57.44L34.5333 62.56L57.1467 81.4Z" fill="white"/>
</svg>
