<svg width="76" height="76" viewBox="0 0 76 76" fill="none" xmlns="http://www.w3.org/2000/svg">
<path d="M60.091 35.3657C61.9543 35.3657 63.5002 36.8649 63.5002 38.7724C63.5002 40.6349 61.9543 42.1791 60.091 42.1791H57.4093C55.5002 42.1791 54.0002 40.6349 54.0002 38.7724C54.0002 36.8641 55.5002 35.3657 57.4093 35.3657H60.091Z" fill="#232323" fill-opacity="0.75"/>
<path d="M38.0459 35.5016C45.9092 35.5016 52.3184 41.8158 52.3184 49.6749C52.3184 57.5341 45.9092 63.8024 38.0459 63.8483C30.1825 63.8024 23.7275 57.5341 23.7275 49.6749C23.7275 41.8158 30.1817 35.5016 38.0459 35.5016ZM45.5 49.6749C45.5 45.6316 42.1817 42.3158 38.0459 42.3158C33.8642 42.3158 30.5459 45.6316 30.5459 49.6749C30.5459 53.6724 33.8642 57.0341 38.0459 57.0341C42.1817 57.0341 45.5 53.6724 45.5 49.6749Z" fill="#232323" fill-opacity="0.75"/>
<path d="M40.4543 1.11342L49.6818 10.3351C51.0451 11.6976 51.0451 13.8326 49.6818 15.1501C48.3634 16.5126 46.1818 16.5126 44.8634 15.1501L41.4543 11.7434V26.3709C41.4543 28.2334 39.9084 29.7776 38.0451 29.7776C36.1359 29.7776 34.6359 28.2334 34.6359 26.3709V11.7434L31.1818 15.1501C29.8634 16.5126 27.7276 16.5126 26.3634 15.1501C25.0451 13.8326 25.0451 11.6526 26.3634 10.3351L35.6368 1.11342C35.9093 0.885924 36.1826 0.659258 36.4551 0.522591C36.7276 0.340924 37.0459 0.250091 37.3643 0.159258C37.5909 0.160091 37.8184 0.114258 38.0459 0.114258C38.2734 0.114258 38.5001 0.160091 38.7276 0.160091C39.0459 0.250924 39.3643 0.341758 39.6368 0.523425C39.9093 0.659258 40.1818 0.886758 40.4543 1.11342Z" fill="#232323" fill-opacity="0.75"/>
<path d="M63.4542 75.1144H12.5908C5.90917 75.0686 0.5 69.6636 0.5 63.0311V35.0477C0.5 28.3702 5.95417 23.0094 12.5908 23.0094H22.1817C24.045 23.0094 25.5908 24.5086 25.5908 26.4161C25.5908 28.2786 24.045 29.8227 22.1817 29.8227H12.5908C9.68167 29.8227 7.31833 32.1852 7.31833 35.0469V63.0311C7.31833 64.4394 7.90917 65.7569 8.86417 66.7111C9.86417 67.7102 11.1367 68.3011 12.5917 68.3011H63.455C66.3183 68.3011 68.6825 65.8936 68.6825 63.0319V35.0477C68.6825 32.1402 66.3642 29.8236 63.455 29.8236H53.8183C51.955 29.8236 50.4092 28.2794 50.4092 26.4169C50.4092 24.5086 51.955 23.0102 53.8183 23.0102H63.455C70.0908 23.0094 75.5 28.3702 75.5 35.0477V63.0311C75.5 69.6636 70.1367 75.0686 63.4542 75.1144Z" fill="#232323" fill-opacity="0.75"/>
</svg>
