<svg width="32" height="32" viewBox="0 0 32 32" fill="none" xmlns="http://www.w3.org/2000/svg">
<path d="M19.3973 5.8819V0.761905C19.3973 0.335238 19.0621 0 18.6354 0H11.8393C11.4126 0 11.0774 0.335238 11.0774 0.761905V5.8819C11.0774 6.30857 11.4126 6.64381 11.8393 6.64381H18.6354C19.0621 6.64381 19.3973 6.30857 19.3973 5.8819Z" fill="#798889"/>
<path d="M7.99773 0.031563C4.09677 0.275372 1.43011 2.2868 0.439632 5.63918C0.287252 6.14204 0.652966 6.6449 1.17106 6.6449H8.0282C8.45487 6.6449 8.79011 6.30966 8.79011 5.88299V0.793468C8.79011 0.366801 8.42439 0.00108676 7.99773 0.031563Z" fill="#798889"/>
<path d="M22.477 0.0137407C26.3779 0.25755 29.0446 2.26898 30.035 5.62136C30.1874 6.12422 29.8217 6.62707 29.3036 6.62707H22.4465C22.0198 6.62707 21.6846 6.29184 21.6846 5.86517V0.775645C21.6846 0.348979 22.0503 -0.0167355 22.477 0.0137407Z" fill="#798889"/>
<path d="M30.4762 20.8761C30.4762 20.8609 30.461 20.8456 30.4457 20.8304C30.3848 20.739 30.3086 20.6475 30.2324 20.5714C30.2171 20.5561 30.2019 20.5256 30.1867 20.5104C28.9524 19.139 27.1391 18.2856 25.1429 18.2856C23.2229 18.2856 21.4705 19.078 20.221 20.358C19.0172 21.5923 18.2857 23.2837 18.2857 25.1428C18.2857 26.4228 18.6514 27.6418 19.2762 28.678C19.6114 29.2418 20.0381 29.7599 20.5257 30.1866C20.5562 30.2018 20.5714 30.2171 20.5867 30.2323C20.6629 30.3085 20.7391 30.3695 20.8305 30.4456C20.8305 30.4456 20.8305 30.4456 20.8457 30.4456C20.861 30.4609 20.8762 30.4761 20.8914 30.4761C22.0343 31.4361 23.5124 31.9999 25.1429 31.9999C27.6419 31.9999 29.821 30.659 31.0095 28.678C31.36 28.0837 31.6343 27.4285 31.8019 26.7428C31.9391 26.2247 32 25.6914 32 25.1428C32 23.5275 31.4362 22.0342 30.4762 20.8761ZM27.7029 26.2552H26.2857V27.7333C26.2857 28.358 25.7676 28.8761 25.1429 28.8761C24.5181 28.8761 24 28.358 24 27.7333V26.2552H22.5829C21.9581 26.2552 21.44 25.7371 21.44 25.1123C21.44 24.4875 21.9581 23.9695 22.5829 23.9695H24V22.6133C24 21.9885 24.5181 21.4704 25.1429 21.4704C25.7676 21.4704 26.2857 21.9885 26.2857 22.6133V23.9695H27.7029C28.3276 23.9695 28.8457 24.4875 28.8457 25.1123C28.8457 25.7371 28.3429 26.2552 27.7029 26.2552Z" fill="#798889"/>
<path d="M30.4762 9.6906V16.3649C30.4762 16.9287 29.8819 17.2945 29.379 17.0354C28.099 16.3649 26.6362 15.9992 25.1429 15.9992C22.6895 15.9992 20.2971 17.0049 18.5905 18.7573C16.9143 20.464 16 22.7345 16 25.1421C16 26.3764 16.4876 27.9611 17.0971 29.2868C17.341 29.8202 16.9752 30.4754 16.381 30.4754H8.85333C3.9619 30.4754 0 26.5135 0 21.6221V9.6906C0 9.26393 0.335238 8.92871 0.761905 8.92871H29.7143C30.141 8.92871 30.4762 9.26393 30.4762 9.6906Z" fill="#798889"/>
</svg>
