<svg width="16" height="11" viewBox="0 0 16 11" fill="none" xmlns="http://www.w3.org/2000/svg">
<path d="M14.6808 4.83148C14.8936 5.12968 15 5.27948 15 5.49998C15 5.72118 14.8936 5.87028 14.6808 6.16848C13.7246 7.50968 11.2823 10.4 8 10.4C4.717 10.4 2.2754 7.50898 1.3192 6.16848C1.1064 5.87028 1 5.72048 1 5.49998C1 5.27878 1.1064 5.12968 1.3192 4.83148C2.2754 3.49028 4.7177 0.599976 8 0.599976C11.283 0.599976 13.7246 3.49098 14.6808 4.83148Z" stroke="white" stroke-linecap="round" stroke-linejoin="round"/>
<path d="M10.0999 5.50002C10.0999 4.94307 9.87865 4.40893 9.48483 4.0151C9.091 3.62127 8.55686 3.40002 7.9999 3.40002C7.44295 3.40002 6.9088 3.62127 6.51498 4.0151C6.12115 4.40893 5.8999 4.94307 5.8999 5.50002C5.8999 6.05698 6.12115 6.59112 6.51498 6.98495C6.9088 7.37878 7.44295 7.60002 7.9999 7.60002C8.55686 7.60002 9.091 7.37878 9.48483 6.98495C9.87865 6.59112 10.0999 6.05698 10.0999 5.50002Z" stroke="white" stroke-linecap="round" stroke-linejoin="round"/>
</svg>
